<svg width="1000" height="200" xmlns="http://www.w3.org/2000/svg" fill-rule="evenodd" clip-rule="evenodd" stroke-linejoin="round" stroke-miterlimit="2"><g fill-rule="nonzero"><path d="M198.3 29.9c-2.2-7-7.4-10-15.8-9.4-15.1.4-29 4.7-41.8 12.8l-.2.9V35a63.5 63.5 0 0 0-45-11.6c-8.1.9-16 3.1-23.5 6.7a41.6 41.6 0 0 0-25.4 34.7c-.3 3 .4 5.5 2.3 7.7a59 59 0 0 0 3.5 3.9A65 65 0 0 0 25.1 99a56 56 0 0 0-10.6 37.9 6 6 0 0 0 3.7 5.2c3.4 1.7 6.8 2.8 10.3 3.4-.7 1.4-1.3 3-1.6 4.6a100.5 100.5 0 0 0-2.4 16.9c0 5 1.2 9.8 3.5 14.3 1.2 2.3 3 3.6 5.6 3.7 8 .4 16 .6 24.2.6l91.2.1c10.6 0 20.8-2 30.6-5.8l.6-.7c1-1 1.6-2.1 1.8-3.4-.8-2-2.3-3.1-4.5-3.4-9.8-1.2-18.2-2-25.2-2.5a13 13 0 0 0 7.6-6.6c1.9-1.1 3.4-2.6 4.6-4.5l1.1-2 .4-.4s0-.2.2-.3c.2-.2.3-.6.3-1 4.4-9 4.8-18.5 1-28.8a101.4 101.4 0 0 0-32.9-45.6l4.3-3c8.3-6.4 13-14.5 14.1-24.3.3-2.2 0-4.2-.8-6.1 10.4-1.5 20.6-3.3 30.8-5.7a27.5 27.5 0 0 0 14.2-7.7 4 4 0 0 0 1-4M166 27c10.1-3 19.5-2.2 28 2.3 0 .3-.2.5-.3.7-3.4 3.7-8 6.2-13.4 7.4-10.4 2.2-20.8 4-31.3 5.1a72.3 72.3 0 0 0-6-5.5c.2 0 .5 0 .7-.2 7-4.2 14.5-7.5 22.3-9.8m5.3 149.5c1.6-.1 2.2.1 1.8.6-5.9 2-11.9 3-18.1 3h-15.6l.1-.6-.2-.8c-.1-.4-.4-.8-.7-1.1l-.6-.3a789 789 0 0 0-21.8-7.1c2.3-1.3 4.1-3.7 5.3-7.2 0-.4 0-.8-.3-1.2l-.6-.7a12.3 12.3 0 0 0-1.6-.6l-.7.1-.7.2c-2.6 3.8-6 6.5-10.1 8v1.2l.3.7c0 .1 0 .2.2.2 0 .4 0 .8.3 1.2a379.8 379.8 0 0 0 7.2 3.5c4.5 2 9.2 3.5 13.8 4.4-32 0-63.7.2-95.5.3-.3-.2-.6-.6-.8-1a37.5 37.5 0 0 1-2.5-23.8 221 221 0 0 0 41 2.4c4 0 8 0 12.1.2a566 566 0 0 0 75.3-.7c-2.3 2-5.4 3.4-9.2 4.4l-.2 1.2c0 .4 0 .7.2 1.1l.7.3-.3.2-7.5 6c-.1.4-.2.7-.1 1.1l.1.8.7.5c8.8 2.8 18.2 4 28 3.5m-6.6-38.3c1 6 .4 11-2 14.8-18.4 0-37-.2-55.8-.5l-20 .1c-18.5.3-36.8-.5-55-2.4a54 54 0 0 1 1.8-4.2c6.5.2 13-1.4 19.6-4.8 5.1-2.5 9.5-6 13.1-10.2a38.4 38.4 0 0 0 7.4-41.6A59.6 59.6 0 0 0 93 91.8l.1.4.1.4.3.4.3.3A72.8 72.8 0 0 0 131 83c2 2.6 4.3 5 6.8 7.2 14.7 13.1 23.6 29.1 26.9 48M143.1 43l-4.7.4C110 45.5 82.1 50 54.7 56.6c-.7.3-1.4 1-1.9 1.7a37.6 37.6 0 0 1 2.2-4.5 50.2 50.2 0 0 1 39.7-25.2 77 77 0 0 1 20.6.4 48.2 48.2 0 0 1 27.8 14m-21.7 36.3l-1.7-.2c-4.3 4.4-9.7 7-16.2 7.6a66.6 66.6 0 0 1-42.7-9c-7.8-4.8-10.7-10.8-8.4-18.2v-.2.2c0 .4.1.8.3 1.1.3.5.7.7 1.1.7 4.1 0 8.3-.4 12.4-1.5a316.4 316.4 0 0 1 67.2-10.3c4.6-.4 9.2-1 13.7-1.5.6 1.2.7 2.5.5 3.8A37 37 0 0 1 123 81l-.4-.7-.5-.7-.7-.3M45.2 87l10.2-7.6a50.5 50.5 0 0 0 14.1 8.6l-.3.4a69.5 69.5 0 0 1 2.4 17.7c0 6.4-1.8 12.1-5.6 17.2A40.7 40.7 0 0 1 23.8 140c-2.7-.4-4-2-4-4.7.1-20 8.6-36 25.4-48.4m89.2-36.6l-.9-.3a15 15 0 0 0-1.5.5l-.4.3-.4.4c0 .6-.2 1-.4 1.5-1.5 4-1.8 8-1 11.6.9.7 1.8.9 2.8.4l.2-.2c1.7-1.5 3-3.3 3.7-5.3l-.5-1.1-.5-.8.1-1c.8-2 .6-4-.5-5.7l-.7-.3z"/><path d="M55.5 79.3c-3.2 2.4-6.6 5-10.3 7.6a58.2 58.2 0 0 0-25.4 48.4c0 2.7 1.3 4.3 4 4.7A40.7 40.7 0 0 0 66 123.2a27.6 27.6 0 0 0 5.6-17.2c0-6-.8-12-2.4-17.7l.2-.5c-5-2-9.7-4.8-14-8.5m64.3-.2a30.1 30.1 0 0 1 2.4.5 14.4 14.4 0 0 0 .9 1.4 37 37 0 0 0 24.6-29.1c.2-1.4 0-2.7-.4-3.9a363.6 363.6 0 0 1-22.2 2.2c-20 1.4-39.6 4.6-58.8 9.6-4.1 1-8.2 1.6-12.3 1.6-.5 0-.9-.3-1.1-.8-.2-.3-.3-.7-.3-1.1h-.1c-2.3 7.4.6 13.4 8.5 18.1a66.6 66.6 0 0 0 42.7 9.2c6.4-.8 11.8-3.3 16.2-7.7M133.5 50l1 .3.6.3a6.3 6.3 0 0 1 .6 5.7l-.2 1 .5.8.5 1.1c-.8 2-2 3.8-3.6 5.3l-.3.2c-1 .5-2 .3-2.7-.4-.9-3.7-.6-7.5.9-11.6l.5-1.5a3.8 3.8 0 0 1 .7-.7l.4-.2 1.1-.3m5-6.6c1.5 0 3.1-.2 4.7-.4a48.2 48.2 0 0 0-27.9-14 77 77 0 0 0-20.5-.4 50.2 50.2 0 0 0-41.1 27.6l1 .4c27.4-6.7 55.3-11 83.8-13.2M162.8 153c2.3-3.8 3-8.7 1.9-14.8-3.3-18.9-12.2-34.9-26.8-48A56.8 56.8 0 0 1 131 83a72.8 72.8 0 0 1-37.1 10.3c-.2 0-.3-.2-.4-.3a2.7 2.7 0 0 1-.4-.8l-.1-.4c-6.9.2-13.3-.6-19.1-2.4 5.8 15.1 3.4 29-7.4 41.6-3.7 4.3-8 7.7-13.1 10.2-6.6 3.4-13.2 5-19.6 4.8a54 54 0 0 0-1.8 4.2c18 2 36.4 2.7 54.9 2.4h20l55.9.4m10.3 24.1c.4-.5-.2-.7-1.8-.6-9.8.5-19.2-.7-28-3.5l-.7-.5-.1-.8.1-1.1 7.5-6-.3-.5a2.3 2.3 0 0 1 0-2.3c3.7-1 6.8-2.5 9.1-4.4-25 2-50 2.1-75.3.7-4-.2-8-.3-12.1-.2a221 221 0 0 1-41.1-2.4c-1.7 8-.9 16 2.6 23.8.2.4.5.8.8 1l95.5-.3a71.6 71.6 0 0 1-21-7.9l-.3-1.2c-.1 0-.2 0-.2-.2l-.2-.7-.1-1.2c4.2-1.5 7.5-4.2 10.1-8a15.9 15.9 0 0 1 1.4-.3l1 .3.6.3.6.8c.2.3.3.7.3 1.1-1.2 3.5-3 5.9-5.3 7.2a789 789 0 0 1 22.4 7.4c.3.3.6.7.7 1.1l.2.8v.6H155c6.2 0 12.2-1 18.1-3M194 29.4a35.9 35.9 0 0 0-28-2.3 95.2 95.2 0 0 0-22.3 9.8l-.3.4c1.9 1.6 3.8 3.3 5.6 5.2 10.5-1.1 21-2.8 31.3-5.1 5.5-1.2 10-3.7 13.4-7.4l.3-.6z" fill="#e3e3e3"/></g><g fill-rule="nonzero"><path d="M364 43c-.5-.8-1-1.6-1.7-2.3a5.7 5.7 0 0 0-3.4 1.1 44 44 0 0 1-1 2.8c-.5 1-.6 2-.3 3.3.2.4.6.7 1 .9 1 .5 1.6 1.4 1.9 2.5v.3l-.2.3c5.2 6 5.1 12.7-.2 20.2-3 4.2-6.9 7-11.8 8.7a23 23 0 0 1-9 1.3l11.6 16 .2-.1-.1-.7.1-1.2c.2-.4.5-.8.9-1l.7-.5c1.6-.1 3 .6 3.9 2a39.5 39.5 0 0 0 23-17.6l-.1-.1c-1 0-1.8-.4-2.3-1.3 1.4-5 3.7-9.8 6.8-14.4 1.6-2.4 2-4.7.8-7-1.9-.8-3.4-.1-4.5 2.1-.3.7-.9 1.3-1.6 1.6h-.7l-1.7-.5c-.1-4 .6-8.2 2.1-12.6.6-1.6.6-3.1.1-4.7a.8.8 0 0 0-.3-.2 5 5 0 0 0-1.2-.1 9 9 0 0 0-4.4 8.6 4 4 0 0 1-1 3 4 4 0 0 1-3.3 0c-1.2-1.4-2-3-2.6-4.7a30 30 0 0 1-.7-4l-1-1.6M231.5 152.3a5.8 5.8 0 0 1-4.3-2.2h-.1c-.3 4.6-1.2 9.3-2.8 14.1l-6.8 21.3c27.1 1.8 54.2 2.2 81.1 1.3l-.3-1.3c-2-1.5-3.5-4.1-4.2-7.8-.7-3.7-.5-7.3.7-10.7l.6-.3 1.1-.3a71 71 0 0 1 24.8 19.5 203 203 0 0 0 52.3-1 77 77 0 0 1-13.4-26.9 54.3 54.3 0 0 0 2-28.5 77 77 0 0 1-28.8 14c-21 5.5-42.4 8.6-64.2 9.3-12.6.5-25.1.3-37.7-.6m8-65.8a43 43 0 0 0-24.8 45.3c.5 4.8 3 7.5 7.6 8.2 7.6 1.1 14.6-.2 21-4A53.1 53.1 0 0 0 271 88.2a50.7 50.7 0 0 1-19.6-8.6 59.6 59.6 0 0 1-12 6.8m90.7-7.5l-.2-1-2.3-4a108 108 0 0 1-16.3 7.6 52.4 52.4 0 0 1-36 7.5c.9 13.3-3 25.5-11.7 36.7a45.6 45.6 0 0 1-36.5 19l.1 2.6c.2-.3.4-.6.8-.8l.7-.5c1.3-.3 2.2.1 2.9 1.2 36.8 2.7 72.7-1 107.8-10.8 2-.6 4-1.5 5.9-2.5a200 200 0 0 1 15.2-7.5l1 .3a60.3 60.3 0 0 0-6.7-15.5c-4-6.8-8.6-13-14-18.8a84.4 84.4 0 0 1-10.1-13.1l-.6-.4m12.1-42.6a264 264 0 0 0 14.5-5.1c2.4-1 4.6-2.3 6.5-4-9.7-1.3-18.5.4-26.5 5.2 2 1.2 3.7 2.5 5.5 3.9m2 8.8l-2.1-2.6c-3.7.6-7.4 1.4-11.2 2.2-20.4 4.2-40.8 8.7-61.2 13.6-8 1.9-16.2 3-24.4 3.4.1 1.7.6 3.5 1.4 5.3 1.3 2.7 2.9 5 4.8 7l2-.6 1 .3.6.3.5.8c.3.3.4.7.4 1.1l-1.2 1c2.9 2 6.2 3.6 10 4.6a60.5 60.5 0 0 0 21.2 1.8v-.8l.1-.3.1-.4c11-1.9 21.7-4.7 32.3-8.5 2.6-1 5-2 7.3-3.3l-.6-1.2c.5-1 1.3-1.4 2.3-1.3v-.1l1 .3.6.3a39.3 39.3 0 0 0 15.5-19.8c.4-1 .3-2.1-.5-3.1M330 47l1 .3.6.3c1.4 4.4.9 8.8-1.6 13a2 2 0 0 1-.8.8c-.9.3-1.7 0-2.4-.5-.6-3.5-.5-7.1.5-11l.2-1 .4-.7.7-.8a15.9 15.9 0 0 1 1.4-.4m-1-14.4a82.4 82.4 0 0 0-30.5-5c-21.8.3-38.7 9-50.7 26.4-.9 1.3-1.6 2.7-2 4.1 19-4.6 38.4-8.6 58.1-12.1 11.4-2 22.6-4.7 33.5-8.1a36.4 36.4 0 0 0-4.2-3l-2.5 2a2 2 0 0 1-.7 0l-1.1-.2-.5-.3a7 7 0 0 1-.7-.8l1.3-3z" fill="#e3e3e3"/><path d="M371 25.3l-.2-.4c-2.8-3.3-6.8-4.4-11.8-3.4-5.5.4-11 1.1-16.6 2.4a21 21 0 0 0-11 5.5 64.5 64.5 0 0 0-31.4-6.9c-18.3 0-34.4 6-48.2 17.8A32 32 0 0 0 241 58.1a17.5 17.5 0 0 0 5.8 18c-14.1 6.2-25 16-33 29.5-6.4 10.9-7 22-2 33.1a9 9 0 0 0 7.7 5.6l3.6.3-.5 2.9c-3.1 14.8-7 29.1-11.8 43.1 1.3 1.6 2.8 1.8 4.5.6 12 .1 24 .4 36.2 1 2.7 0 5.3.3 8 .6 15 2 29.5 1.3 43.6-2.1.9.2 1.9.2 3 .1.3-.3.6-.7.7-1.1l.2-.7c0-.4 0-.8-.3-1.2l-.6-.7a16.6 16.6 0 0 1-1.9-.9h.1l.2-.7-3.2-5.3a12.3 12.3 0 0 1-1.7-7.4c4.2 3.2 7.9 6.8 11.1 10.8 1.7 2 3.4 3.7 5.4 4.9 0 .2 0 .5.2.7.7 1 1.6 1.5 2.7 1.6 4.5.2 9 .6 13.5 1.1a116.2 116.2 0 0 0 46.6-3.2c1.2-.8 1.4-1.7.6-2.7a109 109 0 0 1-14.7-28.2 51.9 51.9 0 0 0-5.4-47.9A6589.3 6589.3 0 0 0 339.3 82a23 23 0 0 0 9-1.2c5-1.6 8.9-4.5 11.8-8.7 5.3-7.5 5.4-14.3.3-20.2a2 2 0 0 0 .1-.7c-.3-1-1-1.9-2-2.4-.3-.2-.7-.5-.9-1-.3-1.1-.2-2.2.3-3.3l1-2.7c.5-.4 1-.6 1.7-.8.5-.2 1-.3 1.7-.3a15.2 15.2 0 0 1 2.7 4c.2 1.4.4 2.7.8 4 .5 1.7 1.3 3.2 2.6 4.6.5.3 1 .4 1.6.4.5 0 1-.1 1.6-.4a4 4 0 0 0 1-3 9 9 0 0 1 4.4-8.6l1.2.2.3.2c.5 1.6.5 3.1 0 4.7a33.4 33.4 0 0 0-2.1 12.5c.5.3 1 .4 1.6.5.2.1.5.1.8 0 .7-.3 1.2-.8 1.6-1.5 1-2.2 2.5-2.9 4.5-2 1 2.2.7 4.5-.9 6.9a48.7 48.7 0 0 0-6.7 14.4 2.4 2.4 0 0 0 2.3 1.3 39.5 39.5 0 0 1-23 17.7 4.1 4.1 0 0 0-3.8-2l-.8.5c-.4.2-.7.6-.9 1-.1.4-.2.8-.1 1.1l.1.8c3.9 4.6 8.6 5.2 14.1 1.8a114 114 0 0 0 12.5-9.2c5.9-5 8.5-10.8 7.9-17.5l-.6-.3.3-.3c3.2-4.4 5-9.3 5.7-14.6l-.4-1.5c-.9-3.4-3.1-5.4-6.8-6.1.2-1.8.4-3.5.4-5.3 0-2-.6-3.6-2-5-4.9-4.7-9-4-12.6 2.2l-.1-.1c-2-4-4.9-6.2-9-6.6A41 41 0 0 0 371 25.2M321.5 30c2.7.7 5.2 1.6 7.5 2.6l-1.2 3 .6.7c.1.2.3.3.5.3.3.2.7.3 1.1.3h.8l2.4-2c1.5.9 3 1.9 4.3 3-11 3.4-22.2 6-33.5 8.1-19.8 3.5-39.1 7.5-58.2 12.1.4-1.4 1.1-2.8 2-4.2 12-17.2 29-26 50.7-26.3 7.8-.3 15.4.5 23 2.4m20.6 12.5l2 2.7c.8 1 1 2 .6 3.1-3.1 8.4-8.3 15-15.6 19.8a12.3 12.3 0 0 0-1.6-.6c-1 0-1.8.4-2.2 1.3l.5 1.3a53 53 0 0 1-7.3 3.3 186.3 186.3 0 0 1-32.2 8.4l-.2.4-.1.4v.8c-6.9.6-14 0-21.1-1.9-3.9-1-7.2-2.5-10-4.5l1.1-1c0-.4 0-.8-.3-1.1l-.6-.8a12.3 12.3 0 0 0-1.6-.6l-2 .7c-1.9-2-3.5-4.4-4.8-7.1-.8-1.8-1.3-3.6-1.3-5.3 8.1-.4 16.3-1.5 24.4-3.4A2131.2 2131.2 0 0 1 342 42.6m7.9 5.3c0-2.6-.7-4.7-2.3-6.5a43 43 0 0 0 7.6-2.9c-1.2 1.4-2 3.1-2.3 5.2-.6 3.1-.5 5.5.5 7l.1.8 3.7 4.5a7 7 0 0 1 1.4 6.5c-3.1 11-11 15.6-23.4 13.8l-.5-.4-3.1-4.3c3.2-2 6.4-4.2 9.5-6.7a21.8 21.8 0 0 0 8.8-17m6.7-16.6a264 264 0 0 1-14.5 5.1 71.3 71.3 0 0 0-5.4-4c7.9-4.7 16.7-6.4 26.5-5.2-2 1.8-4.2 3.2-6.6 4.1M329.9 78c0 .4 0 .7.2 1l.6.3c2.8 4.6 6.2 9 10.1 13.1 5.4 5.8 10 12 14 18.8 3 5.2 5.3 10.3 6.7 15.6l-1-.3a200 200 0 0 0-15.2 7.5c-1.9 1-3.9 1.8-5.9 2.4-35.1 10-71 13.6-107.8 10.8-.7-1-1.6-1.4-2.8-1.1l-.8.4a2 2 0 0 0-.8.9v-2.7a45.6 45.6 0 0 0 36.4-18.9A52.3 52.3 0 0 0 275.3 89a52.4 52.4 0 0 0 36-7.4 108 108 0 0 0 16.4-7.6l2.2 4m-94.6 10.8c1.3-.9 2.7-1.7 4.2-2.3 4.4-1.9 8.3-4.1 11.9-6.8 5.8 4.3 12.4 7.1 19.6 8.6l-.1 1.5a53.1 53.1 0 0 1-27.6 46.1 30.8 30.8 0 0 1-21 4.1c-4.5-.7-7.1-3.4-7.6-8.2a43 43 0 0 1 20.6-43m-8 61.4c1 1.3 2.5 2 4.2 2.1 12.6 1 25.2 1.1 37.8.6 21.8-.7 43.2-3.8 64.2-9.3a77 77 0 0 0 28.7-14c1.9 9.3 1.2 18.8-2 28.5l.3.3.1.7a77 77 0 0 0 13 25.8 203 203 0 0 1-52.3 1.1 71 71 0 0 0-24.8-19.5c-.4 0-.8.2-1.1.3l-.5.3c-1.3 3.4-1.5 7-.8 10.7.7 3.7 2.1 6.3 4.3 7.8 0 .4.1.9.3 1.2-27 1-54 .6-81.2-1.2l6.9-21.3a58.2 58.2 0 0 0 2.9-14M331 47.2l-1-.3-.7.1-.7.2-.7.8-.4.7-.1 1.1c-1 3.9-1.2 7.5-.5 11 .7.6 1.5.7 2.4.4l.7-.7c2.5-4.2 3-8.6 1.6-13l-.6-.3z"/></g><g fill-rule="nonzero"><path d="M853 81.8v.2c-5 3.8-10.5 7.4-16.6 10.8a37.2 37.2 0 0 0-20.8 35.3c0 6.5 3.5 10.7 10.2 12.3 7.3 2 14.2 1.1 20.8-2.3 14.2-7.3 22-19 23.4-35.3.5-4.4.7-9 .8-13.5.7-1 1.6-1.5 2.7-1.2V88c-7-1-13.9-3.1-20.4-6.2m109 50h.4a49 49 0 0 0-10.4-23.7 269 269 0 0 1-20.6-30.8l.4-.7.7-.8-1.1-1.9c-2 1.3-4.4 2.4-6.9 3.3a26.3 26.3 0 0 1-18.6 9.5l-7.5 1a81.3 81.3 0 0 1-23.9.4v.5a54 54 0 0 1-9.3 40.2 40.5 40.5 0 0 1-28 17.6h-.1l-1.8.2v.1l1.8-.2c1.6-.1 3.2 0 4.9.1 15 1.5 30 2.2 45.2 2.2 20.7 0 40.2-4.3 58.7-12.9 1.4-.7 2.7-1.1 4-1.4l1 .3.6.3.4.6c2.7-1 5-2.6 6.9-5 .3 0 .7 0 1-.2h.1l1 .3.6.3.6.8m.4 10.6c.3-3.2.3-6.4 0-9.5h-.1c-4 6.3-10 10.1-18.2 11.5-1 .1-1.8 0-2.4-.6-4.1 2-8.6 3.5-13.5 4.5-31 6.5-62.5 8-94.4 4.6a6.2 6.2 0 0 1-3.9-1.8l-.2.2-.6 1.2c3.1 5.7 8.7 8.1 16.6 7.3 1.5-.2 2.9 0 4.2.7l.6.8c.2.3.3.7.3 1.1l-.2.7c-.1.5-.4.8-.7 1.1l-2.5.4c.1 7.1-3.3 13.1-10.1 17.9a38.4 38.4 0 0 1-12.3 5.6 167 167 0 0 0 69.7-3.9c2.2-.6 4.3-1.5 6.3-2.7a167 167 0 0 1-13.3-5.7c-1.6-.8-2.2-2-1.9-3.9.3-1.6 1-3 1.8-4.4.8-.7 1.7-.8 2.6-.3.3 0 .5.2.7.3a14.4 14.4 0 0 0 .7 1.2l.2.3-.1 1.2a22.9 22.9 0 0 0-.7 2.6 143.4 143.4 0 0 0 58.1 11.4c3.5 0 6.9-.9 10-2.5 6.2-3.2 9.5-8 9.7-14.7-8.3.7-16.5 0-24.6-2.1-.4-.1-.8-.4-1.2-.7a2 2 0 0 1-.2-1.2V162l.1-.4.2-.3.7-.8.3-.2a13.2 13.2 0 0 0 1.2-.3 32.5 32.5 0 0 1 1.9.9l2-.1-2.1-1.2a2.3 2.3 0 0 1 0-2.2c8.4-2.8 13.5-7.7 15.3-14.9M919.8 29.6a57.3 57.3 0 0 0-23-2 61 61 0 0 0-49.9 30.6A353 353 0 0 1 898.6 46a750 750 0 0 0 37-6.6 33 33 0 0 0-15.7-9.9m15.5 3.7c1.7 1.5 3.4 3.2 5 5.1l13-2.8a50.4 50.4 0 0 0 20-9.5 29.8 29.8 0 0 0-20.8-.2c-6 1.8-11.8 4.3-17.2 7.4m3.3 10.3l-3.9.8-59.4 12-30.2 6c-1.2 5 .7 9.3 5.7 12.8 6 4.2 12.7 6.7 20 7.6 14.5 1.8 28.5.5 42.1-4v-.3l.1-.4.1-.3a57.2 57.2 0 0 0 24.2-17.4c4.4-5.5 4.9-11 1.3-16.8m-11.2 5.3l.4-.7.7-.8a15.9 15.9 0 0 1 1.4-.4l1 .3.6.3c1.4 3.9 1.4 7.7.2 11.6 0 .2-.2.5-.6.7-.9.3-1.7 0-2.4-.5-1.3-2.9-1.8-6-1.4-9.4l.1-1.1z" fill="#e3e3e3"/><path d="M962.6 133c.3 3.1.3 6.3 0 9.5-1.8 7.2-6.9 12.1-15.3 14.8l-.3 1.2c0 .4 0 .7.3 1.1.7.5 1.4 1 2.2 1.1a68 68 0 0 0-2.4 0 32.5 32.5 0 0 0-1.6-.6l-1.1.2-.4.2a4 4 0 0 0-.7.8l-.2.3-.1.4v1.1c0 .4 0 .8.2 1.2.4.3.8.6 1.2.7 8 2 16.3 2.8 24.6 2.1a16.2 16.2 0 0 1-9.7 14.7 22.4 22.4 0 0 1-10 2.5c-20.2.2-39.5-3.6-58-11.5a12.4 12.4 0 0 0 .4-1.8l.2-.8.1-1.1-.2-.3-.2-.5-.5-.7-.7-.3c-.9-.5-1.8-.4-2.6.3-.9 1.3-1.5 2.8-1.8 4.5-.3 1.7.3 3 2 3.8 4.3 2 8.7 4 13.1 5.7-1.9 1.2-4 2-6.2 2.7a167 167 0 0 1-69.7 4c4.4-1.2 8.5-3.1 12.3-5.8 6.8-4.7 10.2-10.7 10.2-17.8.7 0 1.6-.2 2.4-.4.3-.3.6-.6.7-1.1l.2-.7c0-.4 0-.8-.3-1.2l-.6-.7a7.5 7.5 0 0 0-4.2-.7c-8 .8-13.5-1.6-16.6-7.3 0-.4.3-.8.6-1.2l.2-.3c1 1.1 2.3 1.7 3.9 1.8 31.9 3.4 63.3 2 94.4-4.5 4.9-1 9.4-2.5 13.5-4.5.6.5 1.4.7 2.4.6a25.3 25.3 0 0 0 18.2-11.5c0-.4 0-.8-.3-1.2l-.6-.7a12.3 12.3 0 0 0-1.6-.6l-1.1.2c-1.9 2.4-4.2 4-6.9 5l-.4-.6a12.3 12.3 0 0 0-1.6-.6c-1.3.3-2.6.7-4 1.4-18.5 8.6-38 12.9-58.7 12.9-15.2 0-30.2-.7-45.2-2.2-1.7-.2-3.3-.2-4.8-.1h-.1l-1.8.2c-2 .4-3.8 1-5.4 1.9l-.4-.5-.6-.3a7 7 0 0 0-1.5-.3l-1.1.2-1 .7-.8 1.2a6.2 6.2 0 0 0 1 6.2 22.2 22.2 0 0 0 17.6 9.1 21 21 0 0 1-16 16.6c-5.5 1.1-10.2 3-14.2 5.6 0 1.1.5 1.9 1.4 2.2 15.5 5.5 31.8 7.2 49.1 5.2h3.3a48.4 48.4 0 0 0 38.8-11.3c5 1.7 10 3.3 15.1 4.5 10.1 2.6 20.3 3.1 30.4 1.6 14.4-2.2 22-10 23-23.5.1-1.3-.4-2-1.4-2.4a70.8 70.8 0 0 0-19.6-2.8 9 9 0 0 0 2-.8c8.3-4.3 12.4-10.1 12.3-17.6a21.3 21.3 0 0 0-1.4-16.4 261.4 261.4 0 0 0-30.4-49.7 12.3 12.3 0 0 0-1.6-.6l-.8.1-.6.2-.7.8-.4.7a269 269 0 0 0 20.6 30.8 49 49 0 0 1 10.5 24.8v.1M979 25.3l-.2-.3c-2.5-4.7-6.7-6.7-12.8-6a69.4 69.4 0 0 0-33.8 10.8l-.1.4-.1.4-.1-.1a48.5 48.5 0 0 0-33.9-8 71 71 0 0 0-49.2 22.8 31.7 31.7 0 0 0-8.1 14.9l-.5.1-.1.4-.1.4.1 1.1.1.4c0 1-.2 2-.3 2.9-.3 6 2.1 10.5 7.4 13.4l1.9 1-1.3.6a143 143 0 0 0-9.4 4.2 46.9 46.9 0 0 0-28.4 42.4c0 1.6.2 3.2.7 4.6 4.2 11.4 12.4 16.3 24.6 15l1.8-.3c12-2 21.4-7.8 28.1-17.6a54 54 0 0 0 9.3-40.2 4 4 0 0 0-1.2-.5c-1-.3-1.9.2-2.7 1.2 0 4.6-.3 9-.7 13.5a41.5 41.5 0 0 1-23.4 35.3 28.3 28.3 0 0 1-20.8 2.3c-6.7-1.7-10.1-5.8-10.3-12.3a37.2 37.2 0 0 1 20.8-35.3 128.1 128.1 0 0 0 16.7-11 74.9 74.9 0 0 0 21.6 6.3c7.7 1 15.7 1 23.9-.4l7.4-1c8-.8 14.2-4 18.7-9.5 2.5-.9 4.8-2 6.9-3.3A30 30 0 0 0 946 51.3a11.1 11.1 0 0 0-2.3-8.7h.3l16.6-3.6c8.8-2 14.9-6.5 18.4-13.7m-44.2 19.1l3.9-.8c3.6 5.7 3.1 11.3-1.3 16.8a57.2 57.2 0 0 1-24.2 17.3l-.1.4-.1.4v.3a96.8 96.8 0 0 1-42 4c-7.4-.9-14-3.4-20.1-7.6-5-3.5-7-7.8-5.7-12.8l30.1-6 59.5-12m5.6-6a50.9 50.9 0 0 0-5-5.2c5.4-3 11.2-5.5 17.1-7.4a29.8 29.8 0 0 1 20.8.3 50.4 50.4 0 0 1-20 9.4l-12.9 2.9m-43.7-10.8c8-.9 15.7-.2 23.1 2a33 33 0 0 1 15.7 9.8 750 750 0 0 1-37 6.7 353 353 0 0 0-51.6 12l.8-1.3a61 61 0 0 1 49-29.2M928 48.1l-.4.7-.1 1.2c-.4 3.4 0 6.5 1.4 9.3.7.7 1.5.8 2.4.5.4-.2.6-.4.6-.7 1.2-3.8 1.2-7.6-.2-11.5a12.3 12.3 0 0 0-1.6-.6l-.8.1-.6.2-.7.8z"/></g><g fill-rule="nonzero"><path d="M587.6 40.5c4.2-.8 6.3-3.3 6.5-7.3.3-10.6-5.1-15.7-16.1-15.2a188 188 0 0 0-39.4 13 48.1 48.1 0 0 0-32.1-9 84.8 84.8 0 0 0-52.3 17.9 29.1 29.1 0 0 0-12.5 25c0 4 1.6 7.3 4.7 9.8 1.1 1 2.3 2 3.5 2.8a88.4 88.4 0 0 0-29.5 25.4 44 44 0 0 0-6.8 44.1l1 1.1c1.2 1 2.5 1.6 3.9 1.6l6.6.3c0 .2 0 .5.2.8-3.4 7.3-6 15-7.7 22.8-1.1 5 .7 8.7 5.6 10.9 11.8 5.4 24.2 8.4 37.4 9.2 3.7.1 7.5-.2 11.3-1 5-1.1 6.1-3.6 3.2-7.4a169.8 169.8 0 0 1-8.4-11.8c13.7.4 27.3-.6 40.8-3l-.2.3-.2.3c-.1.4-.2.8-.1 1.2l.1.7a46.5 46.5 0 0 0 14.4 14.4v1.1l.1.4.2.4c1 1 2.3 1.8 3.8 2.4.9.3 1.8.4 2.7.2A132.8 132.8 0 0 0 580 164c2.5-2.2 4.4-4.8 5.6-7.8 3.2-8 .2-12.4-9.1-13.2-2.7.3-5.3.8-7.8 1.7.4-1.8.8-3.6 1-5.4 1-6.7 0-13-2.9-19.2-8-17.2-19.4-31.7-33.8-43.3l3.5-2.8a39.8 39.8 0 0 0 14.3-26l36.8-7.4m2.2-7.8a5 5 0 0 0-.3.7l-.1.3-.5.5a1529.7 1529.7 0 0 0-39.2 8.6l-1.3-2.1c-2-2.7-4.3-5.2-6.7-7.3 10.6-2.8 21.2-5.9 31.8-9.5 9.6-3.3 15.1-.5 16.5 8.4l-.2.4m-7.3 118c0 .5-.1.9-.3 1.3a53.6 53.6 0 0 1-21.6 20.6c-4.3 2.3-8.5 4.9-12.6 7.6a32.4 32.4 0 0 1-20.7 5.9c-6-5.3-11.7-10.7-17.2-16.1 5.8-1.2 11.7-2.6 17.5-4.2.3-.3.6-.7.7-1.2l.2-.7c0-.4 0-.8-.3-1.1l-.6-.8a12.3 12.3 0 0 0-1.6-.6 196.1 196.1 0 0 1-34.5 5.7c-9.1.7-17.9 1.9-26.2 3.7-.2.2-.3.5-.3.8l-.2-.1c-2-1.6-4.2-1.6-6.3 0 3.2 5.7 7.3 11 12.1 15.8a80 80 0 0 1-17.4-.1c-3.7-.4-7.5-.7-11.2-.8-9-.4-15.6-3.9-20-10.5l.2-1.5c1.8-7.7 4.6-15 8.2-22a84.6 84.6 0 0 0 18 2.6 456 456 0 0 0 88.8-5.7c9.3-1.5 17.4-5 24.3-10.4 0-.4 0-.8-.3-1.1l-.6-.8a12.3 12.3 0 0 0-1.6-.6 77.8 77.8 0 0 0-10.2 4.3c-4.2 2-8.5 3.4-13.1 4a440.9 440.9 0 0 1-89.2 4.3c-2.1-.1-4.2-.4-6.3-.8 3.8-.9 7.6-2 11.4-3.5a37.3 37.3 0 0 0 18.8-16 44 44 0 0 0 4-38.8c3.9 1.2 7.9 2 12 2.7 5.7.8 11.4 1.4 17 1.7 6.9.3 11.3-2 13.5-6.9 4.3-2.4 8.4-5 12.5-8 9.5 8.5 18.1 18 25.9 28.2 5.4 7 8.3 14.9 8.8 23.6.7 14-4.2 25.2-14.8 33.6-.2.3-.3.7-.3 1.1 0 .4 0 .7.3 1.1.8 1.3 1.8 1.5 3.1.7a38 38 0 0 0 14.6-18c5.9-2.4 11-2.1 15.5 1M545.4 49l-.1.4a47.3 47.3 0 0 1-21.5 28.2 63 63 0 0 1-63.7 1.6 35 35 0 0 1-7.3-5.1c-4.5-4-6.6-8.3-6.3-12.6.6.2 1.2.3 1.9.3 12 0 24-.6 36-2.1a619.2 619.2 0 0 0 45.4-7.5l-.2.3-.2 1.2c-.4 3.6 0 7 1 10 1.4 1 2.7 1 4-.2l.5-1.1.1-.7-.1-1.1a24.4 24.4 0 0 0-1.3-9.2l11.8-2.4m-1-5.9l.4.8a577 577 0 0 1-85.3 12.6l-1.9-.1c-3.5-1-6.6-1.2-9.4-.7 1-1.7 2.2-3.5 3.9-5.3 14-15.3 31.6-23 52.8-23.4 5.8 0 11.5.6 17.2 1.6a31.5 31.5 0 0 1 22.3 14.5M453 79.9a77.5 77.5 0 0 0 16.3 8.4 50.8 50.8 0 0 1-1.2 34.7c-.8 2-2 3.6-3.5 5a61.8 61.8 0 0 1-44.8 17.9l-.6-.6-1-.8a18 18 0 0 1-1.3-3.7c-.8-3.5-1-7-.6-10.4a57.6 57.6 0 0 1 24-40.1 153 153 0 0 0 12.7-10.4z"/><path d="M469.4 88.3c-5.8-2.2-11.2-5-16.3-8.4-3.9 3.5-8 7-12.7 10.3a57.6 57.6 0 0 0-24 40.1c-.4 3.5-.2 7 .6 10.4a18 18 0 0 0 1.4 3.8l.9.8.5.5c17.5.1 32.5-5.8 44.9-17.8 1.5-1.4 2.7-3 3.5-5 4.4-11.4 4.9-23 1.2-34.8M544.8 44l-.4-.8c-5.1-8-12.5-12.8-22.3-14.5-5.7-1-11.4-1.5-17.3-1.6a70.4 70.4 0 0 0-52.7 23.4c-1.7 1.8-3 3.6-3.9 5.3 2.8-.5 5.9-.3 9.4.6.6.2 1.2.2 1.9.2A577 577 0 0 0 544.8 44m.5 5.4v-.3l-11.8 2.4.1.1c1 2.8 1.4 5.8 1.2 9l.2 1.1-.2.8c0 .4-.2.8-.5 1.1-1.2 1.1-2.5 1.2-4 .2a25.3 25.3 0 0 1-.7-11.2l.2-.3a271 271 0 0 1-83.3 9.4c-.3 4.2 1.8 8.4 6.2 12.4a35 35 0 0 0 7.3 5.1 63 63 0 0 0 63.7-1.6 47.3 47.3 0 0 0 21.6-28.2M582.1 152c.2-.3.4-.8.4-1.3-4.5-3-9.6-3.3-15.5-.9a38 38 0 0 1-14.6 18c-1.3.8-2.3.6-3.2-.7a2.3 2.3 0 0 1 0-2.3 37.8 37.8 0 0 0 14.9-33.5 41.8 41.8 0 0 0-8.8-23.7 199.8 199.8 0 0 0-26-28c-4 2.9-8.1 5.5-12.5 7.9-2 4.9-6.6 7.2-13.4 6.8-5.6-.2-11.3-.8-17-1.6-4.1-.6-8.1-1.5-12-2.8a44 44 0 0 1-4 38.8 37.3 37.3 0 0 1-18.8 16 72.5 72.5 0 0 1-11.4 3.5c2 .5 4.2.8 6.3.9 30 1.6 59.7.2 89.2-4.3 4.6-.6 9-2 13.1-4 3.4-1.8 6.8-3.2 10.2-4.3l1 .3.6.3.6.7.3 1.2c-6.9 5.4-15 8.9-24.4 10.4a456 456 0 0 1-88.7 5.6c-6.2-.2-12.2-1-18-2.5A93.4 93.4 0 0 0 422 176c4.4 6.6 11 10 20 10.4 3.7.2 7.5.4 11.2.8 6.2.7 12 .7 17.4.1-4.8-4.8-8.9-10-12.1-15.7 2.1-1.6 4.2-1.6 6.3 0l.4-.8c8.4-1.7 17.1-3 26.2-3.7 11.8-.8 23.3-2.7 34.6-5.6l1 .3.6.3.5.8c.3.3.4.7.4 1.1l-.2.7c-.1.5-.4.8-.7 1.1-5.8 1.7-11.7 3.1-17.6 4.2 5.6 5.5 11.3 11 17.3 16.1 7.1.6 14-1.4 20.7-5.9 4-2.7 8.2-5.2 12.5-7.5 9.4-5 16.6-12 21.6-20.7m7.4-118.5l.2-.8.3-.4c-1.4-8.8-6.9-11.6-16.5-8.3a427.2 427.2 0 0 1-31.9 9.4 51.2 51.2 0 0 1 8.3 9.4c13-3 26-5.9 39-8.6l.5-.4.1-.3z" fill="#e3e3e3"/></g><g fill-rule="nonzero"><path d="M782.6 28.9c.4-8.4-4.3-12.5-14.1-12.4a127.7 127.7 0 0 0-33 12.4 49 49 0 0 0-29-6.4 79.5 79.5 0 0 0-44.8 17.3 45.8 45.8 0 0 0-16.1 23.6c-1.6 5.4-1 9.9 1.6 13.5a233.9 233.9 0 0 0-19 12 2.7 2.7 0 0 0-.1 1.8c-4.9 5.7-9 11.8-12.7 18.3a33.8 33.8 0 0 0-3.8 23.6A16 16 0 0 0 622 145a39 39 0 0 0 8.1 2.4v.2l.1 1.9a35 35 0 0 0 18.9 4.8 25.2 25.2 0 0 0-1.4 18.9 21.1 21.1 0 0 0 15.1 14.7c15.3 4.4 31 6.1 47.1 5.2a19 19 0 0 0 13.9-6.1c7 3 13.9 2.1 20.6-2.8 7.6-5.6 10.3-12.4 8.2-20.3.6-.1 1.2-.3 1.9-.8a29.4 29.4 0 0 0 15-25.1c.2-2.8 0-5.4-.5-8l1.1-1c0-.4 0-.8-.4-1.1l-.5-.8a12.3 12.3 0 0 0-1-.4c-1.4-5-4-9.6-8-13.7a220 220 0 0 1-27-34.7l.4-.3v-.4l-.2-.3c0-.2 0-.3-.2-.4 0-.2 0-.3-.2-.4l-.3-.4-.7-.3-1-.2h-.7a34 34 0 0 1-8 4.4c-3.8 1.4-7 2.3-9.6 2.5a89.8 89.8 0 0 0 18.5-7.7 36 36 0 0 0 19.1-25.7c.4-2 .3-3.9-.3-5.7 10.4-2.2 20.4-5.7 30-10.5a4.7 4.7 0 0 0 2.7-4m-4.1-1.9a25.8 25.8 0 0 1-13.9 7.3l-18.3 3.6c-2-2.3-4.2-4.3-6.5-6 6.7-2.6 13.5-5.4 20.2-8.4 8-3.6 14.2-2.4 18.5 3.5m-47.3 4.4l-1.5 1-.2.7v.7l.1.4.1.4c.3.5.6.6 1 .5l4.2-1.5c2.3 1.5 4.2 3.3 6 5.3-10.2 2-20.3 3.8-30.6 5.5a425.6 425.6 0 0 0-48.5 11.2c-1.9.5-3.8 1-5.8 1.2-1.5.2-2.7.6-3.8 1l2-2.9a69.4 69.4 0 0 1 68-26.4c3.3.7 6.3 1.6 9 3m-.9 14.7c4.9-.3 9.6-.9 14.3-1.7a9 9 0 0 1-.6 8.2 50.2 50.2 0 0 1-35.8 25.4c-5.3 1-9.5 3.1-12.7 6.2a59 59 0 0 1-34.9-3.3c-2-.8-4-2-5.5-3.6L658 75c0-.4 0-.8-.4-1.1l-.5-.8a12.3 12.3 0 0 0-1.6-.6l-3.2 1.6a14 14 0 0 1-2.5-9.4l.7.2h.7l5.4-2.1A383.1 383.1 0 0 1 714 48.2c5.4-1 10.8-1.6 16.3-2m-31.8 44.1l8.3-1c8.8-.7 16.4-3.4 22.7-8.1 4.7 9.8 11 18.4 19.2 25.8a52.2 52.2 0 0 1 14.5 22c-4 3.6-8.5 6.1-13.7 7.4-31.2 8-62.8 11.2-94.8 9.7l-.6-.8-.5-.7c-.7-.6-1.5-.7-2.4-.5l-1 .6c-.4.3-.6.7-.7 1.1v1.5l.1 1.2a3 3 0 0 0 1.2.8h-.6c-4 0-8-.5-11.9-1.7 6.8-.6 13.1-3.7 19-9.1a50 50 0 0 0 17.3-48.7 74.1 74.1 0 0 0 24 .5m-65.2 1.1l2.3-1c5.5-3 10.7-6.2 15.4-9.8l2.2 1.4c5.5 3 11.1 5.3 16.9 6.8 1.6 8.8.8 17.3-2.3 25.5a45.1 45.1 0 0 1-25.8 27c-10.7 4.4-18.9 2.2-24.5-6.8-1.5-2.5-2-5.3-1.4-8.3a77 77 0 0 1 17.2-34.8m20.6 63.2l-.4-.7c2-.3 4-.8 6-1.4 4 1 8.5 1.2 13.1.7l60.1-6.3a58 58 0 0 0 31.6-12.7c1.2 9.4-2.8 17.4-11.9 24.1-1.9-.2-3.2.5-4 2v.6l-.8 1a1 1 0 0 0 0 .6c.4 1.8.5 3.5.1 5.2-2.3 12-10 17.2-23 15.4l-1 .6-.6.6a193 193 0 0 0-13.1-15.2c-.7-.6-1.5-.7-2.4-.5l-.7.4c-.4.3-.7.7-.9 1.1v1c2.8 5.4 6.9 10.1 12.1 14a104 104 0 0 1-43 1.7c-4.3-.7-8.2-2-11.9-4.2-11.3-6.4-14.4-15.7-9.3-28m75.3-106.5c-.3.3-.5.7-.6 1.1-.4 4.1.2 8 1.6 11.6 1.1.9 2.2.9 3.3 0 .3-.3.5-.6.5-1 .3-4.1-.2-8-1.5-11.7a12.3 12.3 0 0 0-1.6-.6l-1.6.6z"/><path d="M653.6 153.9l.4.7c-5.1 12.3-2 21.6 9.3 28 3.7 2.1 7.7 3.5 11.9 4.2a104 104 0 0 0 43-1.7 40.5 40.5 0 0 1-12-14c-.2-.3-.2-.6-.1-1 .2-.4.5-.8.9-1.1l.8-.4c.8-.2 1.6 0 2.3.5 4.6 4.9 9 10 13.1 15.2l.6-.6 1-.6c13 1.8 20.7-3.4 23-15.3a12 12 0 0 0-.1-5.3v-.6l.8-1v-.5c.8-1.6 2.1-2.3 4-2 9.1-6.8 13-14.8 11.9-24.2a58 58 0 0 1-31.6 12.8l-60.1 6.2c-4.6.5-9 .2-13.2-.7-2 .6-4 1-5.9 1.4m-17.9-63.5l-2.3 1a77 77 0 0 0-17.2 34.9c-.6 3-.1 5.7 1.4 8.2 5.6 9 13.8 11.3 24.5 6.8a45.1 45.1 0 0 0 25.8-27c3.1-8.2 3.9-16.7 2.3-25.5a72.3 72.3 0 0 1-19.1-8.2c-4.7 3.6-9.9 6.8-15.4 9.8m71.1-1l-8.3.9c-8.2 1.1-16.2 1-23.9-.5a50 50 0 0 1-17.3 48.7c-5.9 5.4-12.2 8.5-19 9.2 3.9 1 7.9 1.7 12 1.7v-.3a3 3 0 0 1-.7-.6l-.2-1.1.1-1.5c.1-.5.3-.8.7-1.1l1-.7c1-.2 1.7 0 2.4.5l.5.8.6.7c32 1.5 63.6-1.7 94.8-9.6 5.2-1.4 9.8-3.9 13.7-7.5a52.2 52.2 0 0 0-14.5-22 82.1 82.1 0 0 1-19.2-25.8c-6.3 4.7-14 7.4-22.7 8.2m37.8-44.9a134 134 0 0 1-14.3 1.8c-5.5.3-10.9 1-16.3 1.9a383.1 383.1 0 0 0-63.5 16.7l-.7-.2a14 14 0 0 0 2.5 9.5l3.2-1.7 1 .3.6.3.5.8c.3.3.4.7.4 1.1l-2.9 2.5a17 17 0 0 0 5.5 3.6 59 59 0 0 0 34.9 3.3c3.2-3.1 7.4-5.2 12.7-6.2A50.2 50.2 0 0 0 744 52.7a9 9 0 0 0 .6-8.2m-15.9 4.8c0-.5.3-.9.6-1.2a30.6 30.6 0 0 0 1.7-.6l1 .3.6.3c1.3 3.7 1.8 7.6 1.5 11.7 0 .4-.2.8-.5 1-1.1.9-2.2.9-3.3 0-1.4-3.6-2-7.4-1.6-11.5m1-17l1.5-.8a35.3 35.3 0 0 0-9-3 69.4 69.4 0 0 0-70 29.3c1-.4 2.3-.8 3.8-1 2-.3 4-.7 5.8-1.2 16-4.7 32.2-8.4 48.5-11.2 10.3-1.7 20.4-3.5 30.6-5.4-1.8-2.1-3.7-3.9-6-5.4l-4.3 1.6c-.3 0-.6-.1-.9-.6l-.1-.3-.1-.4v-.7l.2-.8m35 1.9a25.8 25.8 0 0 0 13.8-7.3c-4.3-6-10.5-7.1-18.5-3.5-6.7 3-13.5 5.8-20.2 8.4 2.3 1.7 4.5 3.7 6.5 6l18.3-3.6z" fill="#e3e3e3"/></g></svg>