<?xml version="1.0" encoding="UTF-8" standalone="no"?><!DOCTYPE svg PUBLIC "-//W3C//DTD SVG 1.1//EN" "http://www.w3.org/Graphics/SVG/1.1/DTD/svg11.dtd"><svg width="1000" height="200" viewBox="0 0 1000 200" version="1.1" xmlns="http://www.w3.org/2000/svg" xmlns:xlink="http://www.w3.org/1999/xlink" xml:space="preserve" xmlns:serif="http://www.serif.com/" style="fill-rule:evenodd;clip-rule:evenodd;stroke-linejoin:round;stroke-miterlimit:2"><g><g id="Layer0_0_FILL"><path d="M198.25,29.85c-2.1,-6.867 -7.35,-9.983 -15.75,-9.35c-15.133,0.4 -29.05,4.683 -41.75,12.85c-0.1,0.267 -0.183,0.533 -0.25,0.8l0,0.35c-0.018,0.222 -0.002,0.422 0.05,0.6c-12.736,-9.347 -27.753,-13.214 -45.05,-11.6c-8.133,0.867 -15.967,3.1 -23.5,6.7c-15.167,7.2 -23.633,18.767 -25.4,34.7c-0.333,2.933 0.417,5.5 2.25,7.7c1.149,1.361 2.333,2.644 3.55,3.85c-11.004,4.836 -20.104,12.353 -27.3,22.55c-8.2,11.567 -11.75,24.183 -10.65,37.85c0.2,2.467 1.45,4.233 3.75,5.3c3.4,1.616 6.817,2.716 10.25,3.3c-0.67,1.467 -1.203,3.017 -1.6,4.65c-0.867,3.6 -1.533,7.25 -2,10.95c-0.233,1.967 -0.35,3.95 -0.35,5.95c0.033,5.067 1.2,9.85 3.5,14.35c1.2,2.3 3.05,3.517 5.55,3.65c8.067,0.367 16.133,0.55 24.2,0.55c30.4,0 60.817,0.05 91.25,0.15c10.633,0 20.833,-1.95 30.6,-5.85c0.167,-0.233 0.35,-0.467 0.55,-0.7c1,-0.967 1.617,-2.1 1.85,-3.4c-0.8,-1.967 -2.317,-3.083 -4.55,-3.35c-9.733,-1.167 -18.1,-2.017 -25.1,-2.55c3.489,-1.261 6.006,-3.444 7.55,-6.55c1.894,-1.113 3.428,-2.613 4.6,-4.5c0.418,-0.67 0.802,-1.353 1.15,-2.05c0.122,-0.069 0.222,-0.169 0.3,-0.3c0.067,-0.1 0.133,-0.2 0.2,-0.3c0.229,-0.287 0.346,-0.62 0.35,-1c4.426,-8.981 4.759,-18.581 1,-28.8c-6.828,-18.552 -17.795,-33.769 -32.9,-45.65c1.45,-0.95 2.884,-1.967 4.3,-3.05c8.267,-6.333 12.967,-14.4 14.1,-24.2c0.251,-2.206 0.001,-4.256 -0.75,-6.15c10.33,-1.459 20.58,-3.343 30.75,-5.65c5.667,-1.267 10.383,-3.85 14.15,-7.75c1.167,-1.2 1.533,-2.55 1.1,-4.05m-32.25,-2.8c10.133,-3 19.467,-2.233 28,2.3c-0.067,0.267 -0.167,0.483 -0.3,0.65c-3.433,3.7 -7.917,6.167 -13.45,7.4c-10.324,2.25 -20.74,3.95 -31.25,5.1c-1.831,-1.87 -3.714,-3.603 -5.65,-5.2c-0.126,-0.099 -0.259,-0.199 -0.4,-0.3c0.263,-0.01 0.53,-0.06 0.8,-0.15c7.033,-4.233 14.45,-7.5 22.25,-9.8m5.35,149.45c1.567,-0.1 2.15,0.1 1.75,0.6c-5.867,2 -11.9,3 -18.1,3c-5.187,-0.009 -10.37,-0.025 -15.55,-0.05c0.049,-0.162 0.066,-0.345 0.05,-0.55c-0.067,-0.267 -0.133,-0.517 -0.2,-0.75c-0.133,-0.433 -0.367,-0.817 -0.7,-1.15c-0.2,-0.1 -0.417,-0.2 -0.65,-0.3c-7.217,-2.467 -14.483,-4.834 -21.8,-7.1c2.374,-1.312 4.158,-3.712 5.35,-7.2c0.033,-0.433 -0.083,-0.817 -0.35,-1.15c-0.2,-0.233 -0.383,-0.483 -0.55,-0.75c-0.2,-0.1 -0.417,-0.2 -0.65,-0.3c-0.3,-0.133 -0.617,-0.233 -0.95,-0.3c-0.267,0.033 -0.517,0.083 -0.75,0.15c-0.233,0.067 -0.45,0.133 -0.65,0.2c-2.567,3.8 -5.933,6.467 -10.1,8c0,0.4 0.017,0.783 0.05,1.15c0.033,0.233 0.1,0.483 0.2,0.75c0.074,0.074 0.14,0.14 0.2,0.2c0.011,0.389 0.111,0.772 0.3,1.15c0.2,0.267 0.433,0.45 0.7,0.55c2.133,1 4.283,1.983 6.45,2.95c4.624,2.002 9.257,3.485 13.9,4.45c-31.908,0.016 -63.725,0.116 -95.45,0.3c-0.367,-0.267 -0.65,-0.617 -0.85,-1.05c-3.478,-7.873 -4.345,-15.789 -2.6,-23.75c0.04,-0.004 0.073,-0.004 0.1,0c13.5,2.067 27.167,2.867 41,2.4c4.033,-0.133 8.067,-0.083 12.1,0.15c25.261,1.439 50.378,1.206 75.35,-0.7c-2.376,1.918 -5.443,3.402 -9.2,4.45c-0.2,0.367 -0.3,0.75 -0.3,1.15c0,0.367 0.1,0.733 0.3,1.1c0.209,0.12 0.409,0.22 0.6,0.3c-0.055,0.079 -0.122,0.145 -0.2,0.2c-2.424,2.085 -4.941,4.085 -7.55,6c-0.133,0.367 -0.167,0.75 -0.1,1.15c0.033,0.233 0.067,0.483 0.1,0.75c0.2,0.233 0.433,0.4 0.7,0.5c8.833,2.833 18.183,4 28.05,3.5m-6.65,-38.25c1.019,6.003 0.369,10.937 -1.95,14.8c-18.409,-0.111 -37.042,-0.278 -55.9,-0.5c-6.633,-0.067 -13.3,-0.05 -20,0.05c-18.463,0.319 -36.763,-0.464 -54.9,-2.35c0.523,-1.404 1.123,-2.82 1.8,-4.25c6.469,0.188 13.002,-1.396 19.6,-4.75c5.067,-2.567 9.433,-5.983 13.1,-10.25c10.831,-12.593 13.297,-26.46 7.4,-41.6c5.888,1.81 12.271,2.626 19.15,2.45c0.033,0.133 0.067,0.267 0.1,0.4c0.033,0.133 0.083,0.25 0.15,0.35c0.067,0.133 0.15,0.267 0.25,0.4c0.1,0.133 0.217,0.25 0.35,0.35c13.399,-0.135 25.782,-3.585 37.15,-10.35c2.016,2.559 4.299,4.976 6.85,7.25c14.633,13.067 23.583,29.067 26.85,48m-21.55,-95.2c-1.552,0.151 -3.119,0.284 -4.7,0.4c-28.467,2.067 -56.367,6.45 -83.7,13.15c-0.795,0.35 -1.445,0.917 -1.95,1.7c0.271,-0.691 0.571,-1.391 0.9,-2.1c0.387,-0.789 0.82,-1.589 1.3,-2.4c8.767,-14.8 22.017,-23.2 39.75,-25.2c6.933,-0.767 13.783,-0.617 20.55,0.45c11.197,1.768 20.48,6.435 27.85,14m-21.7,36.3c-0.567,-0.1 -1.133,-0.183 -1.7,-0.25c-4.367,4.367 -9.767,6.917 -16.2,7.65c-15.4,1.733 -29.633,-1.3 -42.7,-9.1c-7.894,-4.71 -10.711,-10.76 -8.45,-18.15c0.02,-0.042 0.037,-0.092 0.05,-0.15l0,0.15c0,0.4 0.1,0.767 0.3,1.1c0.267,0.467 0.633,0.717 1.1,0.75c4.1,0.033 8.217,-0.483 12.35,-1.55c19.2,-5.033 38.783,-8.233 58.75,-9.6c2.839,-0.198 5.672,-0.431 8.5,-0.7c4.581,-0.414 9.148,-0.914 13.7,-1.5c0.542,1.202 0.692,2.486 0.45,3.85c-2.433,13.8 -10.633,23.517 -24.6,29.15c-0.133,-0.2 -0.267,-0.417 -0.4,-0.65c-0.167,-0.233 -0.333,-0.483 -0.5,-0.75c-0.2,-0.1 -0.417,-0.183 -0.65,-0.25m-76.25,7.55c3.663,-2.672 7.079,-5.205 10.25,-7.6c4.275,3.659 8.942,6.509 14,8.55c0.052,0.037 0.085,0.054 0.1,0.05c-0.093,0.143 -0.193,0.293 -0.3,0.45c1.533,5.733 2.317,11.617 2.35,17.65c0.067,6.367 -1.8,12.1 -5.6,17.2c-10.467,14.133 -24.533,19.75 -42.2,16.85c-2.733,-0.433 -4.083,-2 -4.05,-4.7c0.2,-19.967 8.683,-36.117 25.45,-48.45m89.25,-36.6c-0.3,-0.133 -0.617,-0.233 -0.95,-0.3c-0.3,0.067 -0.667,0.167 -1.1,0.3c-0.167,0.033 -0.3,0.1 -0.4,0.2c-0.133,0.133 -0.267,0.25 -0.4,0.35c-0.133,0.133 -0.25,0.267 -0.35,0.4c-0.133,0.533 -0.283,1.033 -0.45,1.5c-1.467,4.033 -1.783,7.9 -0.95,11.6c0.833,0.7 1.75,0.833 2.75,0.4c0.1,-0.1 0.183,-0.183 0.25,-0.25c1.667,-1.5 2.883,-3.25 3.65,-5.25c-0.1,-0.433 -0.267,-0.817 -0.5,-1.15c-0.167,-0.233 -0.333,-0.483 -0.5,-0.75c0,-0.367 0.05,-0.717 0.15,-1.05c0.733,-2.033 0.55,-3.933 -0.55,-5.7c-0.2,-0.1 -0.417,-0.2 -0.65,-0.3Z" style="fill-rule:nonzero"/><path d="M55.45,79.3c-3.171,2.395 -6.587,4.928 -10.25,7.6c-16.767,12.333 -25.25,28.483 -25.45,48.45c-0.033,2.7 1.317,4.267 4.05,4.7c17.667,2.9 31.733,-2.717 42.2,-16.85c3.8,-5.1 5.667,-10.833 5.6,-17.2c-0.033,-6.033 -0.817,-11.917 -2.35,-17.65l0.2,-0.5c-5.058,-2.041 -9.725,-4.891 -14,-8.55m64.3,-0.2c0.567,0.067 1.133,0.15 1.7,0.25c0.233,0.067 0.45,0.15 0.65,0.25c0.167,0.267 0.333,0.517 0.5,0.75c0.133,0.233 0.267,0.45 0.4,0.65c13.967,-5.633 22.167,-15.35 24.6,-29.15c0.242,-1.364 0.092,-2.648 -0.45,-3.85c-4.552,0.586 -9.119,1.086 -13.7,1.5c-2.828,0.269 -5.661,0.502 -8.5,0.7c-19.967,1.367 -39.55,4.567 -58.75,9.6c-4.133,1.067 -8.25,1.583 -12.35,1.55c-0.467,-0.033 -0.833,-0.283 -1.1,-0.75c-0.2,-0.333 -0.3,-0.7 -0.3,-1.1l-0.05,0c-2.261,7.39 0.556,13.44 8.45,18.15c13.067,7.8 27.3,10.833 42.7,9.1c6.433,-0.733 11.833,-3.283 16.2,-7.65m13.75,-29.1c0.333,0.067 0.65,0.167 0.95,0.3c0.233,0.1 0.45,0.2 0.65,0.3c1.1,1.767 1.283,3.667 0.55,5.7c-0.1,0.333 -0.15,0.683 -0.15,1.05c0.167,0.267 0.333,0.517 0.5,0.75c0.233,0.333 0.4,0.717 0.5,1.15c-0.767,2 -1.983,3.75 -3.65,5.25c-0.067,0.067 -0.15,0.15 -0.25,0.25c-1,0.433 -1.917,0.3 -2.75,-0.4c-0.833,-3.7 -0.517,-7.567 0.95,-11.6c0.167,-0.467 0.317,-0.967 0.45,-1.5c0.1,-0.133 0.217,-0.267 0.35,-0.4c0.133,-0.1 0.267,-0.217 0.4,-0.35c0.1,-0.1 0.233,-0.167 0.4,-0.2c0.433,-0.133 0.8,-0.233 1.1,-0.3m4.95,-6.55c1.581,-0.116 3.148,-0.249 4.7,-0.4c-7.37,-7.565 -16.653,-12.232 -27.85,-14c-6.767,-1.067 -13.617,-1.217 -20.55,-0.45c-17.733,2 -30.983,10.4 -39.75,25.2c-0.48,0.811 -0.913,1.611 -1.3,2.4l1.05,0.4c27.333,-6.7 55.233,-11.083 83.7,-13.15m24.3,109.6c2.319,-3.863 2.969,-8.797 1.95,-14.8c-3.267,-18.933 -12.217,-34.933 -26.85,-48c-2.551,-2.274 -4.834,-4.691 -6.85,-7.25c-11.368,6.765 -23.751,10.215 -37.15,10.35c-0.133,-0.1 -0.25,-0.217 -0.35,-0.35c-0.1,-0.133 -0.183,-0.267 -0.25,-0.4c-0.067,-0.1 -0.117,-0.217 -0.15,-0.35c-0.033,-0.133 -0.067,-0.267 -0.1,-0.4c-6.879,0.176 -13.262,-0.64 -19.15,-2.45c5.897,15.14 3.431,29.007 -7.4,41.6c-3.667,4.267 -8.033,7.683 -13.1,10.25c-6.598,3.354 -13.131,4.938 -19.6,4.75c-0.677,1.43 -1.277,2.846 -1.8,4.25c18.137,1.886 36.437,2.669 54.9,2.35c6.7,-0.1 13.367,-0.117 20,-0.05c18.858,0.222 37.491,0.389 55.9,0.5m10.35,24.05c0.4,-0.5 -0.183,-0.7 -1.75,-0.6c-9.867,0.5 -19.217,-0.667 -28.05,-3.5c-0.267,-0.1 -0.5,-0.267 -0.7,-0.5c-0.033,-0.267 -0.067,-0.517 -0.1,-0.75c-0.067,-0.4 -0.033,-0.783 0.1,-1.15c2.609,-1.915 5.126,-3.915 7.55,-6l-0.4,-0.5c-0.2,-0.367 -0.3,-0.733 -0.3,-1.1c0,-0.4 0.1,-0.783 0.3,-1.15c3.757,-1.048 6.824,-2.532 9.2,-4.45c-24.972,1.906 -50.089,2.139 -75.35,0.7c-4.033,-0.233 -8.067,-0.283 -12.1,-0.15c-13.833,0.467 -27.5,-0.333 -41,-2.4c-0.027,-0.004 -0.06,-0.004 -0.1,0c-1.745,7.961 -0.878,15.877 2.6,23.75c0.2,0.433 0.483,0.783 0.85,1.05c31.725,-0.184 63.542,-0.284 95.45,-0.3c-4.643,-0.965 -9.276,-2.448 -13.9,-4.45c-2.167,-0.967 -4.317,-1.95 -6.45,-2.95c-0.267,-0.1 -0.5,-0.283 -0.7,-0.55c-0.189,-0.378 -0.289,-0.761 -0.3,-1.15c-0.06,-0.06 -0.126,-0.126 -0.2,-0.2c-0.1,-0.267 -0.167,-0.517 -0.2,-0.75c-0.033,-0.367 -0.05,-0.75 -0.05,-1.15c4.167,-1.533 7.533,-4.2 10.1,-8c0.2,-0.067 0.417,-0.133 0.65,-0.2c0.233,-0.067 0.483,-0.117 0.75,-0.15c0.333,0.067 0.65,0.167 0.95,0.3c0.233,0.1 0.45,0.2 0.65,0.3c0.167,0.267 0.35,0.517 0.55,0.75c0.267,0.333 0.383,0.717 0.35,1.15c-1.192,3.488 -2.976,5.888 -5.35,7.2c7.317,2.266 14.583,4.633 21.8,7.1c0.233,0.1 0.45,0.2 0.65,0.3c0.333,0.333 0.567,0.717 0.7,1.15c0.067,0.233 0.133,0.483 0.2,0.75c0.016,0.205 -0.001,0.388 -0.05,0.55c5.18,0.025 10.363,0.041 15.55,0.05c6.2,0 12.233,-1 18.1,-3m20.9,-147.75c-8.533,-4.533 -17.867,-5.3 -28,-2.3c-7.8,2.3 -15.217,5.567 -22.25,9.8l-0.4,0.45c1.936,1.597 3.819,3.33 5.65,5.2c10.51,-1.15 20.926,-2.85 31.25,-5.1c5.533,-1.233 10.017,-3.7 13.45,-7.4c0.133,-0.167 0.233,-0.383 0.3,-0.65Z" style="fill:#e3e3e3;fill-rule:nonzero"/></g></g><g><g id="Layer0_0_FILL1" serif:id="Layer0_0_FILL"><path d="M364.05,43.05c-0.533,-0.833 -1.133,-1.6 -1.8,-2.3c-0.6,0 -1.167,0.083 -1.7,0.25c-0.633,0.167 -1.2,0.45 -1.7,0.85c-0.3,0.9 -0.633,1.8 -1,2.7c-0.433,1.033 -0.517,2.133 -0.25,3.3c0.233,0.433 0.55,0.75 0.95,0.95c1.033,0.533 1.683,1.35 1.95,2.45c0,0.133 -0.017,0.25 -0.05,0.35c-0.027,0.108 -0.06,0.208 -0.1,0.3c5.18,5.921 5.097,12.654 -0.25,20.2c-2.933,4.167 -6.85,7.067 -11.75,8.7c-3.155,1.052 -6.172,1.468 -9.05,1.25c3.903,5.358 7.787,10.691 11.65,16l0.15,-0.05c-0.033,-0.267 -0.067,-0.517 -0.1,-0.75c-0.067,-0.4 -0.033,-0.783 0.1,-1.15c0.167,-0.433 0.467,-0.783 0.9,-1.05c0.233,-0.167 0.483,-0.317 0.75,-0.45c1.6,-0.1 2.883,0.567 3.85,2c10.231,-3.219 17.898,-9.103 23,-17.65l-0.1,-0.05c-1.033,0 -1.783,-0.433 -2.25,-1.3c1.367,-4.967 3.617,-9.767 6.75,-14.4c1.633,-2.367 1.917,-4.683 0.85,-6.95c-1.933,-0.833 -3.433,-0.15 -4.5,2.05c-0.367,0.733 -0.9,1.25 -1.6,1.55c-0.267,0.067 -0.517,0.067 -0.75,0c-0.567,-0.1 -1.117,-0.267 -1.65,-0.5c-0.167,-3.933 0.533,-8.117 2.1,-12.55c0.567,-1.567 0.583,-3.133 0.05,-4.7c-0.1,-0.1 -0.2,-0.167 -0.3,-0.2c-0.4,-0.1 -0.8,-0.15 -1.2,-0.15c-3.1,2.033 -4.55,4.9 -4.35,8.6c0.067,1.167 -0.283,2.167 -1.05,3c-0.533,0.233 -1.067,0.35 -1.6,0.35c-0.567,0 -1.117,-0.117 -1.65,-0.35c-1.233,-1.4 -2.1,-2.967 -2.6,-4.7c-0.333,-1.267 -0.583,-2.567 -0.75,-3.9c-0.3,-0.567 -0.617,-1.133 -0.95,-1.7m-132.55,109.3c-1.733,-0.1 -3.15,-0.8 -4.25,-2.1l-0.15,-0.05c-0.302,4.648 -1.219,9.348 -2.75,14.1c-2.267,7.1 -4.55,14.2 -6.85,21.3c27.148,1.833 54.198,2.249 81.15,1.25c-0.115,-0.383 -0.215,-0.8 -0.3,-1.25c-2.135,-1.547 -3.551,-4.147 -4.25,-7.8c-0.733,-3.7 -0.483,-7.267 0.75,-10.7c0.167,-0.1 0.35,-0.2 0.55,-0.3c0.333,-0.133 0.7,-0.233 1.1,-0.3c9.662,4.589 17.928,11.089 24.8,19.5c17.659,1.902 35.092,1.552 52.3,-1.05c-5.938,-7.742 -10.271,-16.358 -13,-25.85c-0.061,-0.23 -0.095,-0.463 -0.1,-0.7c-0.085,-0.09 -0.168,-0.19 -0.25,-0.3c3.192,-9.674 3.825,-19.158 1.9,-28.45c-8.3,6.528 -17.867,11.195 -28.7,14c-21,5.433 -42.4,8.533 -64.2,9.3c-12.6,0.467 -25.183,0.267 -37.75,-0.6m7.95,-65.85c-1.433,0.633 -2.817,1.4 -4.15,2.3c-15.733,10.567 -22.6,24.9 -20.6,43c0.5,4.767 3.05,7.5 7.65,8.2c7.533,1.133 14.517,-0.217 20.95,-4.05c17.567,-10.467 26.75,-25.833 27.55,-46.1c0.023,-0.522 0.073,-1.039 0.15,-1.55c-7.23,-1.494 -13.764,-4.344 -19.6,-8.55c-3.562,2.619 -7.546,4.869 -11.95,6.75m90.65,-7.5c-0.112,-0.308 -0.179,-0.625 -0.2,-0.95c-0.786,-1.328 -1.536,-2.678 -2.25,-4.05c-5.178,2.966 -10.612,5.5 -16.3,7.6c-10.716,6.76 -22.733,9.243 -36.05,7.45c0.905,13.343 -2.995,25.593 -11.7,36.75c-9.705,12.38 -21.855,18.697 -36.45,18.95c0.037,0.879 0.054,1.762 0.05,2.65c0.171,-0.344 0.438,-0.627 0.8,-0.85c0.233,-0.167 0.483,-0.317 0.75,-0.45c1.233,-0.267 2.183,0.117 2.85,1.15c36.767,2.733 72.7,-0.867 107.8,-10.8c2.033,-0.6 4,-1.417 5.9,-2.45c5.067,-2.767 10.133,-5.267 15.2,-7.5c0.333,0.067 0.65,0.167 0.95,0.3c-1.368,-5.252 -3.568,-10.436 -6.6,-15.55c-4,-6.767 -8.683,-13.033 -14.05,-18.8c-3.887,-4.155 -7.254,-8.522 -10.1,-13.1c-0.201,-0.108 -0.401,-0.225 -0.6,-0.35m12.1,-42.6c4.876,-1.557 9.71,-3.257 14.5,-5.1c2.4,-0.933 4.583,-2.283 6.55,-4.05c-9.74,-1.267 -18.574,0.466 -26.5,5.2c1.875,1.228 3.692,2.545 5.45,3.95m1.95,8.8c-0.643,-0.909 -1.326,-1.792 -2.05,-2.65c-3.72,0.698 -7.437,1.432 -11.15,2.2c-20.467,4.233 -40.867,8.767 -61.2,13.6c-8.074,1.916 -16.208,3.05 -24.4,3.4c0.053,1.753 0.503,3.536 1.35,5.35c1.287,2.708 2.904,5.058 4.85,7.05c0.647,-0.213 1.297,-0.429 1.95,-0.65c0.333,0.067 0.65,0.167 0.95,0.3c0.233,0.1 0.45,0.2 0.65,0.3c0.167,0.267 0.35,0.517 0.55,0.75c0.267,0.333 0.383,0.717 0.35,1.15c-0.375,0.345 -0.758,0.679 -1.15,1c2.831,2.048 6.164,3.565 10,4.55c7.2,1.867 14.25,2.467 21.15,1.8l0,-0.75c0.033,-0.1 0.067,-0.217 0.1,-0.35c0.033,-0.133 0.083,-0.267 0.15,-0.4c10.867,-1.833 21.617,-4.667 32.25,-8.5c2.603,-0.939 5.036,-2.022 7.3,-3.25c-0.19,-0.416 -0.373,-0.833 -0.55,-1.25c0.467,-0.9 1.217,-1.333 2.25,-1.3l0,-0.05c0.333,0.067 0.65,0.167 0.95,0.3c0.233,0.1 0.45,0.2 0.65,0.3c7.292,-4.814 12.475,-11.414 15.55,-19.8c0.4,-1.067 0.233,-2.1 -0.5,-3.1m-14.15,1.8c0.333,0.067 0.65,0.167 0.95,0.3c0.233,0.1 0.45,0.2 0.65,0.3c1.4,4.433 0.867,8.767 -1.6,13c-0.167,0.3 -0.417,0.55 -0.75,0.75c-0.9,0.3 -1.7,0.133 -2.4,-0.5c-0.667,-3.433 -0.5,-7.067 0.5,-10.9c0.1,-0.333 0.15,-0.7 0.15,-1.1c0.1,-0.233 0.233,-0.467 0.4,-0.7c0.233,-0.267 0.467,-0.533 0.7,-0.8c0.2,-0.067 0.417,-0.133 0.65,-0.2c0.233,-0.067 0.483,-0.117 0.75,-0.15m-1,-14.4c-2.329,-1.044 -4.829,-1.894 -7.5,-2.55c-7.567,-1.9 -15.233,-2.717 -23,-2.45c-21.767,0.3 -38.65,9.083 -50.65,26.35c-0.944,1.367 -1.627,2.75 -2.05,4.15c19.059,-4.555 38.443,-8.589 58.15,-12.1c11.38,-2.033 22.547,-4.733 33.5,-8.1c-1.319,-1.101 -2.736,-2.118 -4.25,-3.05c-0.817,0.636 -1.633,1.303 -2.45,2c-0.267,0.067 -0.517,0.083 -0.75,0.05c-0.4,-0.033 -0.767,-0.117 -1.1,-0.25c-0.2,-0.067 -0.367,-0.167 -0.5,-0.3c-0.233,-0.233 -0.45,-0.483 -0.65,-0.75c0.345,-1.053 0.762,-2.053 1.25,-3Z" style="fill:#e3e3e3;fill-rule:nonzero"/><path d="M371,25.25c-0.067,-0.133 -0.133,-0.25 -0.2,-0.35c-2.833,-3.3 -6.767,-4.433 -11.8,-3.4c-5.533,0.367 -11.083,1.15 -16.65,2.35c-4.691,0.995 -8.341,2.828 -10.95,5.5c-9.352,-4.816 -19.819,-7.099 -31.4,-6.85c-18.3,0.067 -34.367,6 -48.2,17.8c-5.633,4.8 -9.233,10.717 -10.8,17.75c-1.567,7.067 0.333,13.033 5.7,17.9c0.048,0.043 0.098,0.077 0.15,0.1c-0.024,0.027 -0.057,0.044 -0.1,0.05c-14.054,6.209 -25.037,16.043 -32.95,29.5c-6.4,10.867 -7.05,21.917 -1.95,33.15c1.533,3.333 4.067,5.2 7.6,5.6c1.223,0.144 2.423,0.244 3.6,0.3c-0.145,0.956 -0.311,1.906 -0.5,2.85c-3.067,14.767 -7,29.133 -11.8,43.1c1.3,1.633 2.8,1.85 4.5,0.65c12.033,0.1 24.1,0.4 36.2,0.9c2.7,0.133 5.383,0.367 8.05,0.7c14.934,1.995 29.467,1.279 43.6,-2.15c0.879,0.197 1.879,0.247 3,0.15c0.333,-0.333 0.567,-0.717 0.7,-1.15c0.067,-0.233 0.133,-0.467 0.2,-0.7c0.033,-0.433 -0.083,-0.817 -0.35,-1.15c-0.2,-0.233 -0.383,-0.483 -0.55,-0.75c-0.533,-0.2 -1.067,-0.433 -1.6,-0.7c-0.074,-0.037 -0.157,-0.087 -0.25,-0.15c0.026,-0.014 0.043,-0.031 0.05,-0.05c0.067,-0.233 0.133,-0.467 0.2,-0.7c-1.033,-1.733 -2.1,-3.5 -3.2,-5.3c-1.333,-2.267 -1.9,-4.717 -1.7,-7.35c4.167,3.133 7.867,6.717 11.1,10.75c1.66,2.078 3.443,3.712 5.35,4.9c0.035,0.239 0.102,0.489 0.2,0.75c0.7,0.967 1.617,1.483 2.75,1.55c4.533,0.2 9.033,0.583 13.5,1.15c15.408,1.947 30.458,0.947 45.15,-3c0.46,0.086 0.944,0.019 1.45,-0.2c1.167,-0.833 1.367,-1.767 0.6,-2.8c-6.254,-8.628 -11.154,-18.011 -14.7,-28.15c4.924,-12.922 4.757,-25.939 -0.5,-39.05c-1.3,-3.167 -2.933,-6.117 -4.9,-8.85c-2.868,-3.938 -5.751,-7.888 -8.65,-11.85c-3.863,-5.309 -7.747,-10.642 -11.65,-16c2.878,0.218 5.895,-0.198 9.05,-1.25c4.9,-1.633 8.817,-4.533 11.75,-8.7c5.347,-7.546 5.43,-14.279 0.25,-20.2c0.04,-0.092 0.073,-0.192 0.1,-0.3c0.033,-0.1 0.05,-0.217 0.05,-0.35c-0.267,-1.1 -0.917,-1.917 -1.95,-2.45c-0.4,-0.2 -0.717,-0.517 -0.95,-0.95c-0.267,-1.167 -0.183,-2.267 0.25,-3.3c0.367,-0.9 0.7,-1.8 1,-2.7c0.5,-0.4 1.067,-0.683 1.7,-0.85c0.533,-0.167 1.1,-0.25 1.7,-0.25c0.667,0.7 1.267,1.467 1.8,2.3c0.333,0.567 0.65,1.133 0.95,1.7c0.167,1.333 0.417,2.633 0.75,3.9c0.5,1.733 1.367,3.3 2.6,4.7c0.533,0.233 1.083,0.35 1.65,0.35c0.533,0 1.067,-0.117 1.6,-0.35c0.767,-0.833 1.117,-1.833 1.05,-3c-0.2,-3.7 1.25,-6.567 4.35,-8.6c0.4,0 0.8,0.05 1.2,0.15c0.1,0.033 0.2,0.1 0.3,0.2c0.533,1.567 0.517,3.133 -0.05,4.7c-1.567,4.433 -2.267,8.617 -2.1,12.55c0.533,0.233 1.083,0.4 1.65,0.5c0.233,0.067 0.483,0.067 0.75,0c0.7,-0.3 1.233,-0.817 1.6,-1.55c1.067,-2.2 2.567,-2.883 4.5,-2.05c1.067,2.267 0.783,4.583 -0.85,6.95c-3.133,4.633 -5.383,9.433 -6.75,14.4c0.467,0.867 1.217,1.3 2.25,1.3c0.039,-0.004 0.072,-0.004 0.1,0c0.007,0.016 0.007,0.033 0,0.05c-5.102,8.547 -12.769,14.431 -23,17.65c-0.967,-1.433 -2.25,-2.1 -3.85,-2c-0.267,0.133 -0.517,0.283 -0.75,0.45c-0.433,0.267 -0.733,0.617 -0.9,1.05c-0.133,0.367 -0.167,0.75 -0.1,1.15c0.033,0.233 0.067,0.483 0.1,0.75c3.867,4.633 8.567,5.217 14.1,1.75c4.4,-2.8 8.55,-5.85 12.45,-9.15c5.9,-5 8.55,-10.833 7.95,-17.5c-0.179,-0.089 -0.379,-0.189 -0.6,-0.3c0.108,-0.106 0.208,-0.222 0.3,-0.35c3.167,-4.4 5.067,-9.267 5.7,-14.6c-0.167,-0.5 -0.317,-1 -0.45,-1.5c-0.833,-3.367 -3.1,-5.4 -6.8,-6.1c0.267,-1.733 0.417,-3.483 0.45,-5.25c0.033,-2 -0.633,-3.65 -2,-4.95c-4.887,-4.754 -9.087,-4.038 -12.6,2.15c0.009,0.017 0.009,0.034 0,0.05c-0.067,-0.033 -0.117,-0.083 -0.15,-0.15c-1.858,-3.981 -4.824,-6.181 -8.9,-6.6c4.022,-2.717 7.505,-6.133 10.45,-10.25m-49.5,4.8c2.671,0.656 5.171,1.506 7.5,2.55c-0.488,0.947 -0.905,1.947 -1.25,3c0.2,0.267 0.417,0.517 0.65,0.75c0.133,0.133 0.3,0.233 0.5,0.3c0.333,0.133 0.7,0.217 1.1,0.25c0.233,0.033 0.483,0.017 0.75,-0.05c0.817,-0.697 1.633,-1.364 2.45,-2c1.514,0.932 2.931,1.949 4.25,3.05c-10.953,3.367 -22.12,6.067 -33.5,8.1c-19.707,3.511 -39.091,7.545 -58.15,12.1c0.423,-1.4 1.106,-2.783 2.05,-4.15c12,-17.267 28.883,-26.05 50.65,-26.35c7.767,-0.267 15.433,0.55 23,2.45m20.6,12.5c0.724,0.858 1.407,1.741 2.05,2.65c0.733,1 0.9,2.033 0.5,3.1c-3.075,8.386 -8.258,14.986 -15.55,19.8c-0.2,-0.1 -0.417,-0.2 -0.65,-0.3c-0.3,-0.133 -0.617,-0.233 -0.95,-0.3l0,0.05c-1.033,-0.033 -1.783,0.4 -2.25,1.3c0.177,0.417 0.36,0.834 0.55,1.25c-2.264,1.228 -4.697,2.311 -7.3,3.25c-10.633,3.833 -21.383,6.667 -32.25,8.5c-0.067,0.133 -0.117,0.267 -0.15,0.4c-0.033,0.133 -0.067,0.25 -0.1,0.35l0,0.75c-6.9,0.667 -13.95,0.067 -21.15,-1.8c-3.836,-0.985 -7.169,-2.502 -10,-4.55c0.392,-0.321 0.775,-0.655 1.15,-1c0.033,-0.433 -0.083,-0.817 -0.35,-1.15c-0.2,-0.233 -0.383,-0.483 -0.55,-0.75c-0.2,-0.1 -0.417,-0.2 -0.65,-0.3c-0.3,-0.133 -0.617,-0.233 -0.95,-0.3c-0.653,0.221 -1.303,0.437 -1.95,0.65c-1.946,-1.992 -3.563,-4.342 -4.85,-7.05c-0.847,-1.814 -1.297,-3.597 -1.35,-5.35c8.192,-0.35 16.326,-1.484 24.4,-3.4c20.333,-4.833 40.733,-9.367 61.2,-13.6c3.713,-0.768 7.43,-1.502 11.15,-2.2m7.9,5.3c0.093,-2.504 -0.691,-4.671 -2.35,-6.5c2.706,-0.732 5.256,-1.682 7.65,-2.85c-1.181,1.361 -1.964,3.095 -2.35,5.2c-0.59,3.137 -0.407,5.487 0.55,7.05c0.034,0.24 0.067,0.49 0.1,0.75c1.3,1.467 2.533,2.95 3.7,4.45c1.567,2 2.017,4.183 1.35,6.55c-3.067,11 -10.867,15.617 -23.4,13.85c-0.147,-0.158 -0.297,-0.308 -0.45,-0.45c-1.037,-1.419 -2.087,-2.852 -3.15,-4.3c3.278,-2.032 6.445,-4.249 9.5,-6.65c5.7,-4.5 8.65,-10.2 8.85,-17.1m6.7,-16.55c-4.79,1.843 -9.624,3.543 -14.5,5.1c-1.758,-1.405 -3.575,-2.722 -5.45,-3.95c7.926,-4.734 16.76,-6.467 26.5,-5.2c-1.967,1.767 -4.15,3.117 -6.55,4.05m-26.8,46.75c0.021,0.325 0.088,0.642 0.2,0.95c0.199,0.125 0.399,0.242 0.6,0.35c2.846,4.578 6.213,8.945 10.1,13.1c5.367,5.767 10.05,12.033 14.05,18.8c3.032,5.114 5.232,10.298 6.6,15.55c-0.3,-0.133 -0.617,-0.233 -0.95,-0.3c-5.067,2.233 -10.133,4.733 -15.2,7.5c-1.9,1.033 -3.867,1.85 -5.9,2.45c-35.1,9.933 -71.033,13.533 -107.8,10.8c-0.667,-1.033 -1.617,-1.417 -2.85,-1.15c-0.267,0.133 -0.517,0.283 -0.75,0.45c-0.362,0.223 -0.629,0.506 -0.8,0.85c0.004,-0.888 -0.013,-1.771 -0.05,-2.65c14.595,-0.253 26.745,-6.57 36.45,-18.95c8.705,-11.157 12.605,-23.407 11.7,-36.75c13.317,1.793 25.334,-0.69 36.05,-7.45c5.688,-2.1 11.122,-4.634 16.3,-7.6c0.714,1.372 1.464,2.722 2.25,4.05m-94.6,10.75c1.333,-0.9 2.717,-1.667 4.15,-2.3c4.404,-1.881 8.388,-4.131 11.95,-6.75c5.836,4.206 12.37,7.056 19.6,8.55c-0.077,0.511 -0.127,1.028 -0.15,1.55c-0.8,20.267 -9.983,35.633 -27.55,46.1c-6.433,3.833 -13.417,5.183 -20.95,4.05c-4.6,-0.7 -7.15,-3.433 -7.65,-8.2c-2,-18.1 4.867,-32.433 20.6,-43m-8.05,61.45c1.1,1.3 2.517,2 4.25,2.1c12.567,0.867 25.15,1.067 37.75,0.6c21.8,-0.767 43.2,-3.867 64.2,-9.3c10.833,-2.805 20.4,-7.472 28.7,-14c1.925,9.292 1.292,18.776 -1.9,28.45c0.082,0.11 0.165,0.21 0.25,0.3c0.005,0.237 0.039,0.47 0.1,0.7c2.729,9.492 7.062,18.108 13,25.85c-17.208,2.602 -34.641,2.952 -52.3,1.05c-6.872,-8.411 -15.138,-14.911 -24.8,-19.5c-0.4,0.067 -0.767,0.167 -1.1,0.3c-0.2,0.1 -0.383,0.2 -0.55,0.3c-1.233,3.433 -1.483,7 -0.75,10.7c0.699,3.653 2.115,6.253 4.25,7.8c0.085,0.45 0.185,0.867 0.3,1.25c-26.952,0.999 -54.002,0.583 -81.15,-1.25c2.3,-7.1 4.583,-14.2 6.85,-21.3c1.531,-4.752 2.448,-9.452 2.75,-14.1c0.01,-0.092 0.01,-0.192 0,-0.3c0.048,0.119 0.098,0.236 0.15,0.35m103.7,-102.95c-0.3,-0.133 -0.617,-0.233 -0.95,-0.3c-0.267,0.033 -0.517,0.083 -0.75,0.15c-0.233,0.067 -0.45,0.133 -0.65,0.2c-0.233,0.267 -0.467,0.533 -0.7,0.8c-0.167,0.233 -0.3,0.467 -0.4,0.7c0,0.4 -0.05,0.767 -0.15,1.1c-1,3.833 -1.167,7.467 -0.5,10.9c0.7,0.633 1.5,0.8 2.4,0.5c0.333,-0.2 0.583,-0.45 0.75,-0.75c2.467,-4.233 3,-8.567 1.6,-13c-0.2,-0.1 -0.417,-0.2 -0.65,-0.3Z" style="fill-rule:nonzero"/></g></g><g><g id="Layer0_0_FILL2" serif:id="Layer0_0_FILL"><path d="M853.05,81.85l-0.05,0c0.003,0.056 0.003,0.106 0,0.15c-4.967,3.833 -10.517,7.433 -16.65,10.8c-14.133,7.833 -21.067,19.6 -20.8,35.3c0.133,6.533 3.55,10.65 10.25,12.35c7.267,1.867 14.2,1.083 20.8,-2.35c14.167,-7.333 21.983,-19.083 23.45,-35.25c0.4,-4.467 0.633,-8.967 0.7,-13.5c0.749,-1.099 1.649,-1.515 2.7,-1.25l0.05,-0.15c-7.035,-1.035 -13.851,-3.068 -20.45,-6.1m109.1,50l0.3,-0.05c-1.125,-8.353 -4.575,-16.253 -10.35,-23.7c-7.633,-9.867 -14.5,-20.117 -20.6,-30.75c0.1,-0.233 0.233,-0.467 0.4,-0.7c0.233,-0.267 0.467,-0.533 0.7,-0.8l-1.1,-1.9c-2.074,1.26 -4.374,2.36 -6.9,3.3c-4.5,5.533 -10.717,8.7 -18.65,9.5c-2.467,0.233 -4.95,0.55 -7.45,0.95c-8.208,1.311 -16.158,1.444 -23.85,0.4l-0.05,0.5c2.267,14.467 -0.833,27.867 -9.3,40.2c-6.733,9.8 -16.083,15.667 -28.05,17.6l-0.05,0c-0.607,0.102 -1.207,0.185 -1.8,0.25l0,0.1c0.598,-0.102 1.198,-0.185 1.8,-0.25l0.05,0c1.503,-0.102 3.103,-0.069 4.8,0.1c15,1.467 30.067,2.2 45.2,2.2c20.7,-0.033 40.283,-4.333 58.75,-12.9c1.367,-0.667 2.7,-1.133 4,-1.4c0.333,0.067 0.65,0.167 0.95,0.3c0.233,0.1 0.45,0.2 0.65,0.3c0.131,0.21 0.264,0.41 0.4,0.6c2.745,-0.94 5.029,-2.59 6.85,-4.95c0.367,-0.033 0.733,-0.1 1.1,-0.2c0.033,0 0.05,-0.017 0.05,-0.05c0.333,0.067 0.65,0.167 0.95,0.3c0.233,0.1 0.45,0.2 0.65,0.3c0.167,0.267 0.35,0.517 0.55,0.75m0.45,10.65c0.322,-3.229 0.322,-6.395 0,-9.5l-0.1,0c-3.967,6.3 -10.05,10.133 -18.25,11.5c-0.953,0.143 -1.736,-0.057 -2.35,-0.6c-4.148,2.028 -8.648,3.545 -13.5,4.55c-31.067,6.4 -62.533,7.9 -94.4,4.5c-1.551,-0.149 -2.851,-0.749 -3.9,-1.8c-0.057,0.083 -0.124,0.167 -0.2,0.25c-0.333,0.367 -0.55,0.767 -0.65,1.2c3.167,5.7 8.717,8.133 16.65,7.3c1.5,-0.167 2.9,0.067 4.2,0.7c0.167,0.267 0.35,0.517 0.55,0.75c0.267,0.333 0.383,0.717 0.35,1.15c-0.067,0.233 -0.133,0.467 -0.2,0.7c-0.133,0.467 -0.367,0.85 -0.7,1.15c-0.834,0.158 -1.651,0.274 -2.45,0.35c0.075,7.149 -3.308,13.099 -10.15,17.85c-3.767,2.633 -7.85,4.533 -12.25,5.7c23.8,3.567 47.017,2.25 69.65,-3.95c2.223,-0.618 4.307,-1.518 6.25,-2.7c-4.483,-1.711 -8.883,-3.611 -13.2,-5.7c-1.6,-0.8 -2.25,-2.083 -1.95,-3.85c0.3,-1.633 0.917,-3.117 1.85,-4.45c0.8,-0.667 1.667,-0.783 2.6,-0.35c0.233,0.133 0.45,0.25 0.65,0.35c0.167,0.267 0.333,0.517 0.5,0.75c0.1,0.133 0.183,0.267 0.25,0.4c0.033,0.133 0.083,0.25 0.15,0.35c0.033,0.4 0,0.783 -0.1,1.15c-0.067,0.233 -0.133,0.483 -0.2,0.75c-0.033,0.133 -0.05,0.25 -0.05,0.35c-0.1,0.5 -0.233,1 -0.4,1.5c18.533,7.833 37.9,11.633 58.1,11.4c3.5,-0.033 6.833,-0.85 10,-2.45c6.2,-3.167 9.417,-8.067 9.65,-14.7c-8.333,0.667 -16.517,-0.033 -24.55,-2.1c-0.433,-0.133 -0.833,-0.383 -1.2,-0.75c-0.2,-0.367 -0.283,-0.75 -0.25,-1.15l0,-1.1c0.033,-0.133 0.067,-0.267 0.1,-0.4c0.033,-0.1 0.1,-0.2 0.2,-0.3c0.2,-0.3 0.433,-0.567 0.7,-0.8c0.1,-0.1 0.217,-0.167 0.35,-0.2c0.367,-0.067 0.733,-0.15 1.1,-0.25c0.033,0 0.05,-0.017 0.05,-0.05c0.533,0.2 1.067,0.417 1.6,0.65c0.1,0.067 0.183,0.133 0.25,0.2c0.714,-0.045 1.414,-0.078 2.1,-0.1c-0.757,-0.224 -1.49,-0.607 -2.2,-1.15c-0.2,-0.367 -0.3,-0.733 -0.3,-1.1c0,-0.4 0.1,-0.783 0.3,-1.15c8.474,-2.746 13.59,-7.696 15.35,-14.85m-42.75,-112.9c-7.467,-2.233 -15.167,-2.9 -23.1,-2c-21.5,1.8 -37.85,11.55 -49.05,29.25c-0.281,0.444 -0.547,0.877 -0.8,1.3c16.73,-5.269 33.947,-9.286 51.65,-12.05c12.398,-1.909 24.731,-4.126 37,-6.65c-4.149,-4.696 -9.382,-7.979 -15.7,-9.85m15.5,3.65c1.794,1.567 3.494,3.283 5.1,5.15c4.308,-0.906 8.608,-1.856 12.9,-2.85c7.5,-1.733 14.167,-4.883 20,-9.45c-6.233,-2.567 -13.167,-2.65 -20.8,-0.25c-5.983,1.851 -11.717,4.318 -17.2,7.4m3.35,10.35c-1.276,0.274 -2.56,0.541 -3.85,0.8c-19.833,4 -39.667,8 -59.5,12c-10.182,2.06 -20.232,4.06 -30.15,6c-1.242,4.992 0.658,9.258 5.7,12.8c6.033,4.167 12.717,6.7 20.05,7.6c14.433,1.767 28.45,0.45 42.05,-3.95l0,-0.35c0.033,-0.133 0.067,-0.267 0.1,-0.4c0.033,-0.1 0.083,-0.217 0.15,-0.35c9.733,-3.767 17.783,-9.55 24.15,-17.35c4.447,-5.471 4.88,-11.071 1.3,-16.8m-11.2,5.25c0.1,-0.233 0.233,-0.467 0.4,-0.7c0.233,-0.267 0.467,-0.533 0.7,-0.8c0.2,-0.067 0.417,-0.133 0.65,-0.2c0.233,-0.067 0.483,-0.117 0.75,-0.15c0.333,0.067 0.65,0.167 0.95,0.3c0.233,0.1 0.45,0.2 0.65,0.3c1.367,3.867 1.45,7.717 0.25,11.55c-0.067,0.267 -0.267,0.5 -0.6,0.7c-0.9,0.3 -1.7,0.133 -2.4,-0.5c-1.367,-2.833 -1.85,-5.95 -1.45,-9.35c0.067,-0.367 0.1,-0.75 0.1,-1.15Z" style="fill:#e3e3e3;fill-rule:nonzero"/><path d="M962.6,133c0.322,3.105 0.322,6.271 0,9.5c-1.76,7.154 -6.876,12.104 -15.35,14.85c-0.2,0.367 -0.3,0.75 -0.3,1.15c0,0.367 0.1,0.733 0.3,1.1c0.71,0.543 1.443,0.926 2.2,1.15c-0.686,0.022 -1.386,0.055 -2.1,0.1c-0.067,-0.067 -0.15,-0.133 -0.25,-0.2c-0.533,-0.233 -1.067,-0.45 -1.6,-0.65c0,0.033 -0.017,0.05 -0.05,0.05c-0.367,0.1 -0.733,0.183 -1.1,0.25c-0.133,0.033 -0.25,0.1 -0.35,0.2c-0.267,0.233 -0.5,0.5 -0.7,0.8c-0.1,0.1 -0.167,0.2 -0.2,0.3c-0.033,0.133 -0.067,0.267 -0.1,0.4l0,1.1c-0.033,0.4 0.05,0.783 0.25,1.15c0.367,0.367 0.767,0.617 1.2,0.75c8.033,2.067 16.217,2.767 24.55,2.1c-0.233,6.633 -3.45,11.533 -9.65,14.7c-3.167,1.6 -6.5,2.417 -10,2.45c-20.2,0.233 -39.567,-3.567 -58.1,-11.4c0.167,-0.5 0.3,-1 0.4,-1.5c0,-0.1 0.017,-0.217 0.05,-0.35c0.067,-0.267 0.133,-0.517 0.2,-0.75c0.1,-0.367 0.133,-0.75 0.1,-1.15c-0.067,-0.1 -0.117,-0.217 -0.15,-0.35c-0.067,-0.133 -0.15,-0.267 -0.25,-0.4c-0.167,-0.233 -0.333,-0.483 -0.5,-0.75c-0.2,-0.1 -0.417,-0.217 -0.65,-0.35c-0.933,-0.433 -1.8,-0.317 -2.6,0.35c-0.933,1.333 -1.55,2.817 -1.85,4.45c-0.3,1.767 0.35,3.05 1.95,3.85c4.317,2.089 8.717,3.989 13.2,5.7c-1.943,1.182 -4.027,2.082 -6.25,2.7c-22.633,6.2 -45.85,7.517 -69.65,3.95c4.4,-1.167 8.483,-3.067 12.25,-5.7c6.842,-4.751 10.225,-10.701 10.15,-17.85c0.799,-0.076 1.616,-0.192 2.45,-0.35c0.333,-0.3 0.567,-0.683 0.7,-1.15c0.067,-0.233 0.133,-0.467 0.2,-0.7c0.033,-0.433 -0.083,-0.817 -0.35,-1.15c-0.2,-0.233 -0.383,-0.483 -0.55,-0.75c-1.3,-0.633 -2.7,-0.867 -4.2,-0.7c-7.933,0.833 -13.483,-1.6 -16.65,-7.3c0.1,-0.433 0.317,-0.833 0.65,-1.2c0.076,-0.083 0.143,-0.167 0.2,-0.25c1.049,1.051 2.349,1.651 3.9,1.8c31.867,3.4 63.333,1.9 94.4,-4.5c4.852,-1.005 9.352,-2.522 13.5,-4.55c0.614,0.543 1.397,0.743 2.35,0.6c8.2,-1.367 14.283,-5.2 18.25,-11.5c0.032,-0.421 -0.084,-0.805 -0.35,-1.15c-0.2,-0.233 -0.383,-0.483 -0.55,-0.75c-0.2,-0.1 -0.417,-0.2 -0.65,-0.3c-0.3,-0.133 -0.617,-0.233 -0.95,-0.3c0,0.033 -0.017,0.05 -0.05,0.05c-0.367,0.1 -0.733,0.167 -1.1,0.2c-1.821,2.36 -4.105,4.01 -6.85,4.95c-0.136,-0.19 -0.269,-0.39 -0.4,-0.6c-0.2,-0.1 -0.417,-0.2 -0.65,-0.3c-0.3,-0.133 -0.617,-0.233 -0.95,-0.3c-1.3,0.267 -2.633,0.733 -4,1.4c-18.467,8.567 -38.05,12.867 -58.75,12.9c-15.133,0 -30.2,-0.733 -45.2,-2.2c-1.697,-0.169 -3.297,-0.202 -4.8,-0.1l-0.05,0c-0.602,0.065 -1.202,0.148 -1.8,0.25c-2.005,0.327 -3.822,0.944 -5.45,1.85c-0.126,-0.162 -0.243,-0.328 -0.35,-0.5c-0.2,-0.1 -0.417,-0.183 -0.65,-0.25c-0.467,-0.167 -0.95,-0.283 -1.45,-0.35c0,0.033 -0.017,0.05 -0.05,0.05c-0.333,0.1 -0.7,0.167 -1.1,0.2c-0.267,0.233 -0.567,0.467 -0.9,0.7c-0.4,0.333 -0.683,0.717 -0.85,1.15c-0.8,2.3 -0.483,4.367 0.95,6.2c4.565,5.865 10.432,8.899 17.6,9.1c-1.252,6.371 -4.919,11.271 -11,14.7c-1.6,0.9 -3.25,1.533 -4.95,1.9c-5.467,1.133 -10.2,3 -14.2,5.6c0,1.133 0.467,1.867 1.4,2.2c15.467,5.5 31.833,7.233 49.1,5.2c1.1,-0.133 2.2,-0.133 3.3,0c15.436,1.639 28.369,-2.127 38.8,-11.3c4.933,1.746 9.966,3.263 15.1,4.55c10.1,2.533 20.25,3.05 30.45,1.55c14.367,-2.167 22.033,-9.983 23,-23.45c0.067,-1.3 -0.417,-2.1 -1.45,-2.4c-5.571,-1.629 -11.438,-2.546 -17.6,-2.75c-0.68,-0.012 -1.363,-0.029 -2.05,-0.05c0.667,-0.164 1.35,-0.43 2.05,-0.8c8.259,-4.327 12.376,-10.194 12.35,-17.6c1.77,-5.136 1.286,-10.619 -1.45,-16.45c-8.2,-17.567 -18.333,-34.133 -30.4,-49.7c-0.2,-0.1 -0.417,-0.2 -0.65,-0.3c-0.3,-0.133 -0.617,-0.233 -0.95,-0.3c-0.267,0.033 -0.517,0.083 -0.75,0.15c-0.233,0.067 -0.45,0.133 -0.65,0.2c-0.233,0.267 -0.467,0.533 -0.7,0.8c-0.167,0.233 -0.3,0.467 -0.4,0.7c6.1,10.633 12.967,20.883 20.6,30.75c5.775,7.447 9.225,15.347 10.35,23.7c0.052,0.39 0.102,0.774 0.15,1.15l0,0.05m16.4,-107.65c-0.067,-0.1 -0.133,-0.217 -0.2,-0.35c-2.467,-4.667 -6.733,-6.667 -12.8,-6c-12.2,0.7 -23.45,4.317 -33.75,10.85c-0.067,0.133 -0.117,0.267 -0.15,0.4c-0.029,0.114 -0.062,0.231 -0.1,0.35c-0.017,-0.024 -0.051,-0.058 -0.1,-0.1c-9.245,-6.604 -20.545,-9.271 -33.9,-8c-3.533,0.267 -7.133,0.767 -10.8,1.5c-15.1,3.067 -27.9,10.167 -38.4,21.3c-4.148,4.403 -6.848,9.37 -8.1,14.9c-0.151,0.049 -0.301,0.099 -0.45,0.15c-0.067,0.133 -0.117,0.267 -0.15,0.4c-0.033,0.133 -0.067,0.267 -0.1,0.4c-0.067,0.367 -0.033,0.733 0.1,1.1c0.033,0.133 0.083,0.25 0.15,0.35c-0.14,0.951 -0.24,1.918 -0.3,2.9c-0.4,6.033 2.05,10.517 7.35,13.45c0.639,0.355 1.272,0.688 1.9,1c-0.418,0.186 -0.851,0.369 -1.3,0.55c-3.133,1.256 -6.283,2.656 -9.45,4.2c-18.1,8.967 -27.55,23.1 -28.35,42.4c-0.067,1.633 0.167,3.167 0.7,4.6c4.187,11.355 12.37,16.339 24.55,14.95l0.05,0c0.593,-0.065 1.193,-0.148 1.8,-0.25l0.05,0c11.967,-1.933 21.317,-7.8 28.05,-17.6c8.467,-12.333 11.567,-25.733 9.3,-40.2c-0.393,-0.243 -0.776,-0.409 -1.15,-0.5c-1.051,-0.265 -1.951,0.151 -2.7,1.25c-0.067,4.533 -0.3,9.033 -0.7,13.5c-1.467,16.167 -9.283,27.917 -23.45,35.25c-6.6,3.433 -13.533,4.217 -20.8,2.35c-6.7,-1.7 -10.117,-5.817 -10.25,-12.35c-0.267,-15.7 6.667,-27.467 20.8,-35.3c6.133,-3.367 11.683,-6.967 16.65,-10.8c0.003,-0.044 0.003,-0.094 0,-0.15c0.017,0.008 0.033,0.008 0.05,0c6.599,3.032 13.415,5.065 20.45,6.1c0.383,0.073 0.767,0.123 1.15,0.15c7.692,1.044 15.642,0.911 23.85,-0.4c2.5,-0.4 4.983,-0.717 7.45,-0.95c7.933,-0.8 14.15,-3.967 18.65,-9.5c2.526,-0.94 4.826,-2.04 6.9,-3.3c8.289,-5.013 13.139,-12.563 14.55,-22.65c0.4,-2.933 -0.233,-5.617 -1.9,-8.05c-0.15,-0.219 -0.3,-0.436 -0.45,-0.65c0.101,-0.021 0.201,-0.037 0.3,-0.05c5.564,-1.16 11.114,-2.344 16.65,-3.55c8.733,-1.933 14.85,-6.483 18.35,-13.65m-44.15,19.05c1.29,-0.259 2.574,-0.526 3.85,-0.8c3.58,5.729 3.147,11.329 -1.3,16.8c-6.367,7.8 -14.417,13.583 -24.15,17.35c-0.067,0.133 -0.117,0.25 -0.15,0.35c-0.033,0.133 -0.067,0.267 -0.1,0.4l0,0.35c-13.6,4.4 -27.617,5.717 -42.05,3.95c-7.333,-0.9 -14.017,-3.433 -20.05,-7.6c-5.042,-3.542 -6.942,-7.808 -5.7,-12.8c9.918,-1.94 19.968,-3.94 30.15,-6c19.833,-4 39.667,-8 59.5,-12m5.6,-6c-1.606,-1.867 -3.306,-3.583 -5.1,-5.15c5.483,-3.082 11.217,-5.549 17.2,-7.4c7.633,-2.4 14.567,-2.317 20.8,0.25c-5.833,4.567 -12.5,7.717 -20,9.45c-4.292,0.994 -8.592,1.944 -12.9,2.85m-43.7,-10.8c7.933,-0.9 15.633,-0.233 23.1,2c6.318,1.871 11.551,5.154 15.7,9.85c-12.269,2.524 -24.602,4.741 -37,6.65c-17.703,2.764 -34.92,6.781 -51.65,12.05c0.253,-0.423 0.519,-0.856 0.8,-1.3c11.2,-17.7 27.55,-27.45 49.05,-29.25m31.15,20.55c-0.167,0.233 -0.3,0.467 -0.4,0.7c0,0.4 -0.033,0.783 -0.1,1.15c-0.4,3.4 0.083,6.517 1.45,9.35c0.7,0.633 1.5,0.8 2.4,0.5c0.333,-0.2 0.533,-0.433 0.6,-0.7c1.2,-3.833 1.117,-7.683 -0.25,-11.55c-0.2,-0.1 -0.417,-0.2 -0.65,-0.3c-0.3,-0.133 -0.617,-0.233 -0.95,-0.3c-0.267,0.033 -0.517,0.083 -0.75,0.15c-0.233,0.067 -0.45,0.133 -0.65,0.2c-0.233,0.267 -0.467,0.533 -0.7,0.8Z" style="fill-rule:nonzero"/></g></g><g><g id="Layer0_0_FILL3" serif:id="Layer0_0_FILL"><path d="M587.6,40.55c4.167,-0.867 6.317,-3.3 6.45,-7.3c0.3,-10.667 -5.05,-15.75 -16.05,-15.25c-13.625,2.868 -26.758,7.185 -39.4,12.95c-8.766,-6.558 -19.466,-9.541 -32.1,-8.95c-19.467,0.133 -36.9,6.1 -52.3,17.9c-8.567,6.5 -12.733,14.817 -12.5,24.95c0.067,4.067 1.617,7.367 4.65,9.9c1.165,0.977 2.349,1.91 3.55,2.8c-11.524,6.074 -21.374,14.524 -29.55,25.35c-10.267,13.633 -12.517,28.333 -6.75,44.1c0.3,0.4 0.633,0.767 1,1.1c1.2,1 2.483,1.55 3.85,1.65c2.207,0.189 4.407,0.272 6.6,0.25c0.033,0.233 0.1,0.483 0.2,0.75c-3.4,7.367 -5.967,15 -7.7,22.9c-1.1,5 0.783,8.617 5.65,10.85c11.767,5.4 24.217,8.45 37.35,9.15c3.767,0.167 7.55,-0.167 11.35,-1c5.067,-1.1 6.133,-3.567 3.2,-7.4c-2.633,-3.4 -5.117,-6.867 -7.45,-10.4c-0.314,-0.479 -0.63,-0.929 -0.95,-1.35c13.741,0.419 27.341,-0.581 40.8,-3c-0.068,0.102 -0.135,0.202 -0.2,0.3c-0.1,0.1 -0.167,0.2 -0.2,0.3c-0.133,0.367 -0.167,0.75 -0.1,1.15c0.033,0.233 0.067,0.483 0.1,0.75c3.987,6.005 8.804,10.738 14.45,14.2c-0.01,0.046 -0.027,0.096 -0.05,0.15l0,1.15c0.033,0.1 0.067,0.217 0.1,0.35c0.033,0.133 0.083,0.267 0.15,0.4c1.1,1 2.367,1.8 3.8,2.4c0.933,0.367 1.85,0.433 2.75,0.2c19.267,-5.4 36.5,-14.683 51.7,-27.85c2.533,-2.2 4.4,-4.8 5.6,-7.8c3.2,-8 0.167,-12.4 -9.1,-13.2c-2.716,0.256 -5.316,0.806 -7.8,1.65c0.449,-1.718 0.799,-3.501 1.05,-5.35c0.9,-6.667 -0.083,-13.083 -2.95,-19.25c-8.085,-17.199 -19.351,-31.616 -33.8,-43.25c1.175,-0.916 2.341,-1.866 3.5,-2.85c7.6,-6.4 12.283,-14.283 14.05,-23.65c0.145,-0.776 0.228,-1.542 0.25,-2.3c12.278,-2.465 24.544,-4.948 36.8,-7.45m2.15,-7.8c-0.1,0.233 -0.183,0.483 -0.25,0.75c0,0.133 -0.033,0.233 -0.1,0.3c-0.167,0.167 -0.35,0.317 -0.55,0.45c-13.033,2.7 -26.017,5.567 -38.95,8.6c-0.07,0.016 -0.136,0.033 -0.2,0.05c-0.354,-0.724 -0.787,-1.424 -1.3,-2.1c-2.082,-2.747 -4.332,-5.197 -6.75,-7.35c10.621,-2.702 21.238,-5.852 31.85,-9.45c9.633,-3.267 15.133,-0.483 16.5,8.35c-0.1,0.133 -0.183,0.267 -0.25,0.4m-7.25,118c-0.033,0.5 -0.15,0.933 -0.35,1.3c-5.033,8.733 -12.233,15.617 -21.6,20.65c-4.3,2.333 -8.483,4.85 -12.55,7.55c-6.693,4.453 -13.593,6.419 -20.7,5.9c-5.984,-5.242 -11.734,-10.609 -17.25,-16.1c5.879,-1.134 11.729,-2.534 17.55,-4.2c0.333,-0.3 0.567,-0.683 0.7,-1.15c0.067,-0.233 0.133,-0.467 0.2,-0.7c0.033,-0.433 -0.083,-0.817 -0.35,-1.15c-0.2,-0.233 -0.383,-0.483 -0.55,-0.75c-0.2,-0.1 -0.417,-0.2 -0.65,-0.3c-0.3,-0.133 -0.617,-0.233 -0.95,-0.3c-11.267,2.9 -22.783,4.783 -34.55,5.65c-9.1,0.7 -17.833,1.933 -26.2,3.7c-0.151,0.277 -0.251,0.561 -0.3,0.85c-0.043,-0.049 -0.093,-0.099 -0.15,-0.15c-2.065,-1.579 -4.165,-1.562 -6.3,0.05c3.233,5.667 7.267,10.917 12.1,15.75c-5.4,0.6 -11.2,0.567 -17.4,-0.1c-3.733,-0.4 -7.483,-0.667 -11.25,-0.8c-8.933,-0.367 -15.583,-3.85 -19.95,-10.45c0.033,-0.533 0.1,-1.05 0.2,-1.55c1.824,-7.692 4.557,-15.008 8.2,-21.95c5.831,1.487 11.848,2.337 18.05,2.55c29.833,1 59.4,-0.883 88.7,-5.65c9.367,-1.533 17.483,-5 24.35,-10.4c0.033,-0.433 -0.083,-0.817 -0.35,-1.15c-0.2,-0.233 -0.383,-0.483 -0.55,-0.75c-0.2,-0.1 -0.417,-0.2 -0.65,-0.3c-0.3,-0.133 -0.617,-0.233 -0.95,-0.3c-3.4,1.133 -6.8,2.55 -10.2,4.25c-4.167,2.067 -8.533,3.433 -13.1,4.1c-29.533,4.433 -59.267,5.85 -89.2,4.25c-2.132,-0.133 -4.232,-0.417 -6.3,-0.85c3.839,-0.836 7.639,-2.003 11.4,-3.5c8.167,-3.267 14.433,-8.6 18.8,-16c7.392,-12.531 8.709,-25.464 3.95,-38.8c3.903,1.203 7.936,2.12 12.1,2.75c5.667,0.833 11.333,1.383 17,1.65c6.8,0.333 11.267,-1.95 13.4,-6.85c4.31,-2.353 8.477,-5.003 12.5,-7.95c9.514,8.499 18.164,17.866 25.95,28.1c5.4,7.067 8.333,14.95 8.8,23.65c0.733,14 -4.217,25.183 -14.85,33.55c-0.2,0.367 -0.3,0.75 -0.3,1.15c0,0.367 0.1,0.733 0.3,1.1c0.833,1.3 1.883,1.517 3.15,0.65c6.846,-4.61 11.712,-10.576 14.6,-17.9c5.872,-2.483 11.039,-2.183 15.5,0.9m-37.15,-101.65c-0.005,0.127 -0.021,0.243 -0.05,0.35c-3.3,11.9 -10.483,21.3 -21.55,28.2c-6.633,4.133 -13.85,6.917 -21.65,8.35c-14.533,2.667 -28.55,0.417 -42.05,-6.75c-2.667,-1.4 -5.1,-3.1 -7.3,-5.1c-4.428,-4.029 -6.511,-8.212 -6.25,-12.55c0.579,0.167 1.195,0.25 1.85,0.25c12.033,0.1 24.033,-0.6 36,-2.1c15.033,-1.9 29.983,-4.35 44.85,-7.35c0.206,-0.042 0.406,-0.092 0.6,-0.15l0,0.05c-0.1,0.1 -0.167,0.2 -0.2,0.3c-0.133,0.367 -0.217,0.75 -0.25,1.15c-0.333,3.6 0,6.967 1,10.1c1.433,0.967 2.767,0.883 4,-0.25c0.233,-0.333 0.4,-0.7 0.5,-1.1c0.033,-0.267 0.083,-0.517 0.15,-0.75c-0.1,-0.4 -0.15,-0.767 -0.15,-1.1c0.133,-3.233 -0.283,-6.25 -1.25,-9.05c-0.042,-0.021 -0.092,-0.054 -0.15,-0.1c0.05,0.01 0.084,0.01 0.1,0c3.952,-0.784 7.885,-1.584 11.8,-2.4m-1,-5.9c0.172,0.269 0.322,0.536 0.45,0.8c-28.103,6.325 -56.536,10.525 -85.3,12.6c-0.667,0.033 -1.3,-0.017 -1.9,-0.15c-3.505,-0.906 -6.638,-1.122 -9.4,-0.65c0.919,-1.735 2.202,-3.502 3.85,-5.3c14.067,-15.267 31.667,-23.067 52.8,-23.4c5.8,0.067 11.55,0.6 17.25,1.6c9.767,1.7 17.183,6.533 22.25,14.5m-91.25,36.65c5.117,3.453 10.55,6.253 16.3,8.4c3.654,11.756 3.238,23.323 -1.25,34.7c-0.8,1.967 -1.95,3.667 -3.45,5.1c-12.433,11.967 -27.383,17.9 -44.85,17.8c-0.2,-0.2 -0.4,-0.4 -0.6,-0.6c-0.3,-0.267 -0.6,-0.517 -0.9,-0.75c-0.6,-1.233 -1.05,-2.483 -1.35,-3.75c-0.833,-3.467 -1.033,-6.933 -0.6,-10.4c2.167,-16.467 10.183,-29.833 24.05,-40.1c4.58,-3.387 8.797,-6.854 12.65,-10.4Z" style="fill-rule:nonzero"/><path d="M469.4,88.25c-5.75,-2.147 -11.183,-4.947 -16.3,-8.4c-3.853,3.546 -8.07,7.013 -12.65,10.4c-13.867,10.267 -21.883,23.633 -24.05,40.1c-0.433,3.467 -0.233,6.933 0.6,10.4c0.3,1.267 0.75,2.517 1.35,3.75c0.3,0.233 0.6,0.483 0.9,0.75c0.2,0.2 0.4,0.4 0.6,0.6c17.467,0.1 32.417,-5.833 44.85,-17.8c1.5,-1.433 2.65,-3.133 3.45,-5.1c4.488,-11.377 4.904,-22.944 1.25,-34.7m75.4,-44.25c-0.128,-0.264 -0.278,-0.531 -0.45,-0.8c-5.067,-7.967 -12.483,-12.8 -22.25,-14.5c-5.7,-1 -11.45,-1.533 -17.25,-1.6c-21.133,0.333 -38.733,8.133 -52.8,23.4c-1.648,1.798 -2.931,3.565 -3.85,5.3c2.762,-0.472 5.895,-0.256 9.4,0.65c0.6,0.133 1.233,0.183 1.9,0.15c28.764,-2.075 57.197,-6.275 85.3,-12.6m0.5,5.45c0.029,-0.107 0.045,-0.223 0.05,-0.35c-3.915,0.816 -7.848,1.616 -11.8,2.4l0.05,0.1c0.967,2.8 1.383,5.817 1.25,9.05c0,0.333 0.05,0.7 0.15,1.1c-0.067,0.233 -0.117,0.483 -0.15,0.75c-0.1,0.4 -0.267,0.767 -0.5,1.1c-1.233,1.133 -2.567,1.217 -4,0.25c-1,-3.133 -1.333,-6.5 -1,-10.1c0.033,-0.4 0.117,-0.783 0.25,-1.15c0.033,-0.1 0.1,-0.2 0.2,-0.3l0,-0.05c-0.194,0.058 -0.394,0.108 -0.6,0.15c-14.867,3 -29.817,5.45 -44.85,7.35c-11.967,1.5 -23.967,2.2 -36,2.1c-0.655,0 -1.271,-0.083 -1.85,-0.25c-0.261,4.338 1.822,8.521 6.25,12.55c2.2,2 4.633,3.7 7.3,5.1c13.5,7.167 27.517,9.417 42.05,6.75c7.8,-1.433 15.017,-4.217 21.65,-8.35c11.067,-6.9 18.25,-16.3 21.55,-28.2m36.85,102.6c0.2,-0.367 0.317,-0.8 0.35,-1.3c-4.461,-3.083 -9.628,-3.383 -15.5,-0.9c-2.888,7.324 -7.754,13.29 -14.6,17.9c-1.267,0.867 -2.317,0.65 -3.15,-0.65c-0.2,-0.367 -0.3,-0.733 -0.3,-1.1c0,-0.4 0.1,-0.783 0.3,-1.15c10.633,-8.367 15.583,-19.55 14.85,-33.55c-0.467,-8.7 -3.4,-16.583 -8.8,-23.65c-7.786,-10.234 -16.436,-19.601 -25.95,-28.1c-4.023,2.947 -8.19,5.597 -12.5,7.95c-2.133,4.9 -6.6,7.183 -13.4,6.85c-5.667,-0.267 -11.333,-0.817 -17,-1.65c-4.164,-0.63 -8.197,-1.547 -12.1,-2.75c4.759,13.336 3.442,26.269 -3.95,38.8c-4.367,7.4 -10.633,12.733 -18.8,16c-3.761,1.497 -7.561,2.664 -11.4,3.5c2.068,0.433 4.168,0.717 6.3,0.85c29.933,1.6 59.667,0.183 89.2,-4.25c4.567,-0.667 8.933,-2.033 13.1,-4.1c3.4,-1.7 6.8,-3.117 10.2,-4.25c0.333,0.067 0.65,0.167 0.95,0.3c0.233,0.1 0.45,0.2 0.65,0.3c0.167,0.267 0.35,0.517 0.55,0.75c0.267,0.333 0.383,0.717 0.35,1.15c-6.867,5.4 -14.983,8.867 -24.35,10.4c-29.3,4.767 -58.867,6.65 -88.7,5.65c-6.202,-0.213 -12.219,-1.063 -18.05,-2.55c-3.643,6.942 -6.376,14.258 -8.2,21.95c-0.1,0.5 -0.167,1.017 -0.2,1.55c4.367,6.6 11.017,10.083 19.95,10.45c3.767,0.133 7.517,0.4 11.25,0.8c6.2,0.667 12,0.7 17.4,0.1c-4.833,-4.833 -8.867,-10.083 -12.1,-15.75c2.135,-1.612 4.235,-1.629 6.3,-0.05l0.45,-0.7c8.367,-1.767 17.1,-3 26.2,-3.7c11.767,-0.867 23.283,-2.75 34.55,-5.65c0.333,0.067 0.65,0.167 0.95,0.3c0.233,0.1 0.45,0.2 0.65,0.3c0.167,0.267 0.35,0.517 0.55,0.75c0.267,0.333 0.383,0.717 0.35,1.15c-0.067,0.233 -0.133,0.467 -0.2,0.7c-0.133,0.467 -0.367,0.85 -0.7,1.15c-5.821,1.666 -11.671,3.066 -17.55,4.2c5.516,5.491 11.266,10.858 17.25,16.1c7.107,0.519 14.007,-1.447 20.7,-5.9c4.067,-2.7 8.25,-5.217 12.55,-7.55c9.367,-5.033 16.567,-11.917 21.6,-20.65m7.35,-118.55c0.067,-0.267 0.15,-0.517 0.25,-0.75c0.067,-0.133 0.15,-0.267 0.25,-0.4c-1.367,-8.833 -6.867,-11.617 -16.5,-8.35c-10.612,3.598 -21.229,6.748 -31.85,9.45c2.418,2.153 4.668,4.603 6.75,7.35c0.513,0.676 0.946,1.376 1.3,2.1c0.064,-0.017 0.13,-0.034 0.2,-0.05c12.933,-3.033 25.917,-5.9 38.95,-8.6c0.2,-0.133 0.383,-0.283 0.55,-0.45c0.067,-0.067 0.1,-0.167 0.1,-0.3Z" style="fill:#e3e3e3;fill-rule:nonzero"/></g></g><g><g id="Layer0_0_FILL4" serif:id="Layer0_0_FILL"><path d="M782.65,28.85c0.367,-8.333 -4.35,-12.45 -14.15,-12.35c-11.578,2.635 -22.561,6.785 -32.95,12.45c-8.285,-4.998 -17.969,-7.148 -29.05,-6.45l0,0.05c-16.667,1.133 -31.583,6.883 -44.75,17.25c-7.967,6.233 -13.35,14.1 -16.15,23.6c-1.592,5.364 -1.042,9.864 1.65,13.5c-4.659,2.625 -9.226,5.408 -13.7,8.35c-0.048,0.017 -0.098,0.034 -0.15,0.05c-0.167,0.033 -0.3,0.1 -0.4,0.2c-0.109,0.11 -0.226,0.21 -0.35,0.3c-1.468,1.01 -2.935,2.026 -4.4,3.05c-0.167,0.367 -0.25,0.75 -0.25,1.15c0,0.272 0.033,0.522 0.1,0.75c-4.858,5.632 -9.092,11.715 -12.7,18.25c-4.133,7.467 -5.383,15.333 -3.75,23.6c1.2,6.033 4.633,10.183 10.3,12.45c2.765,1.12 5.465,1.903 8.1,2.35c0.008,0.065 0.008,0.132 0,0.2c-0.1,0.667 -0.083,1.3 0.05,1.9c5.947,3.417 12.247,5.017 18.9,4.8c-0.251,0.393 -0.468,0.81 -0.65,1.25c-2.367,5.8 -2.6,11.683 -0.7,17.65c2.4,7.533 7.417,12.417 15.05,14.65c15.267,4.433 30.967,6.2 47.1,5.3c5.948,-0.339 10.581,-2.406 13.9,-6.2c7.015,3.124 13.898,2.19 20.65,-2.8c7.527,-5.556 10.243,-12.306 8.15,-20.25c0.614,-0.098 1.247,-0.348 1.9,-0.75c9.567,-5.8 14.583,-14.2 15.05,-25.2c0.123,-2.735 -0.044,-5.368 -0.5,-7.9c0.358,-0.337 0.708,-0.687 1.05,-1.05c0.033,-0.433 -0.083,-0.817 -0.35,-1.15c-0.2,-0.233 -0.383,-0.483 -0.55,-0.75c-0.2,-0.1 -0.417,-0.2 -0.65,-0.3c-0.09,-0.04 -0.19,-0.073 -0.3,-0.1c-1.441,-5.013 -4.108,-9.563 -8,-13.65c-10.188,-10.678 -19.205,-22.245 -27.05,-34.7c0.13,-0.107 0.263,-0.223 0.4,-0.35c0,-0.133 -0.017,-0.267 -0.05,-0.4c-0.033,-0.1 -0.067,-0.217 -0.1,-0.35c-0.067,-0.133 -0.133,-0.267 -0.2,-0.4c-0.067,-0.1 -0.133,-0.217 -0.2,-0.35c-0.1,-0.133 -0.217,-0.267 -0.35,-0.4c-0.2,-0.1 -0.417,-0.2 -0.65,-0.3c-0.3,-0.133 -0.633,-0.2 -1,-0.2c-0.233,-0.033 -0.467,-0.033 -0.7,0c-2.5,1.833 -5.2,3.3 -8.1,4.4c-3.733,1.433 -6.917,2.267 -9.55,2.5c6.467,-1.867 12.633,-4.417 18.5,-7.65c10.567,-5.833 16.933,-14.417 19.1,-25.75c0.38,-1.993 0.297,-3.876 -0.25,-5.65c10.392,-2.25 20.358,-5.75 29.9,-10.5c1.767,-0.9 2.7,-2.267 2.8,-4.1m-4.15,-1.85c-3.667,3.767 -8.283,6.2 -13.85,7.3c-6.098,1.24 -12.214,2.44 -18.35,3.6c-2.036,-2.256 -4.203,-4.273 -6.5,-6.05c6.726,-2.517 13.459,-5.3 20.2,-8.35c8.033,-3.6 14.2,-2.433 18.5,3.5m-47.3,4.45c-0.478,0.299 -0.961,0.599 -1.45,0.9c-0.1,0.267 -0.183,0.533 -0.25,0.8l0,0.7c0.033,0.133 0.067,0.267 0.1,0.4c0.033,0.133 0.083,0.25 0.15,0.35c0.267,0.467 0.567,0.65 0.9,0.55c1.445,-0.493 2.879,-1.01 4.3,-1.55c2.216,1.51 4.199,3.293 5.95,5.35c-10.157,1.91 -20.34,3.727 -30.55,5.45c-16.367,2.767 -32.533,6.483 -48.5,11.15c-1.933,0.567 -3.883,0.983 -5.85,1.25c-1.458,0.211 -2.708,0.561 -3.75,1.05c0.565,-0.971 1.231,-1.954 2,-2.95c12.767,-16.367 29.717,-25.467 50.85,-27.3c5.767,-0.433 11.467,-0.117 17.1,0.95c3.286,0.613 6.286,1.58 9,2.9m-0.9,14.8c4.863,-0.331 9.646,-0.914 14.35,-1.75c1.125,2.706 0.908,5.439 -0.65,8.2c-7.633,13.7 -19.55,22.183 -35.75,25.45c-5.3,1.033 -9.55,3.1 -12.75,6.2c-11.867,2.433 -23.483,1.333 -34.85,-3.3c-2.13,-0.868 -3.98,-2.068 -5.55,-3.6c0.985,-0.791 1.952,-1.607 2.9,-2.45c0.033,-0.433 -0.083,-0.817 -0.35,-1.15c-0.2,-0.233 -0.383,-0.483 -0.55,-0.75c-0.2,-0.1 -0.417,-0.2 -0.65,-0.3c-0.3,-0.133 -0.617,-0.233 -0.95,-0.3c-1.058,0.538 -2.108,1.088 -3.15,1.65c-2.025,-3.052 -2.859,-6.218 -2.5,-9.5c0.208,0.093 0.424,0.16 0.65,0.2c0.233,0.067 0.483,0.067 0.75,0c1.733,-0.8 3.517,-1.5 5.35,-2.1c18.767,-6.333 37.9,-11.183 57.4,-14.55c5.4,-0.933 10.833,-1.583 16.3,-1.95m-31.75,44.05c2.767,-0.367 5.517,-0.683 8.25,-0.95c8.768,-0.77 16.352,-3.486 22.75,-8.15c4.625,9.765 11.025,18.365 19.2,25.8c5.333,4.8 9.5,10.4 12.5,16.8c0.828,1.771 1.495,3.505 2,5.2c-3.963,3.642 -8.529,6.125 -13.7,7.45c-31.233,7.933 -62.833,11.15 -94.8,9.65c-0.233,-0.233 -0.433,-0.483 -0.6,-0.75c-0.2,-0.233 -0.383,-0.483 -0.55,-0.75c-0.7,-0.567 -1.483,-0.733 -2.35,-0.5c-0.333,0.233 -0.667,0.45 -1,0.65c-0.4,0.3 -0.65,0.667 -0.75,1.1c0,0.5 -0.017,1 -0.05,1.5c-0.033,0.4 0.017,0.783 0.15,1.15c0.2,0.233 0.433,0.433 0.7,0.6c0.169,0.09 0.336,0.173 0.5,0.25c-0.175,0.018 -0.359,0.018 -0.55,0c-4.087,0.002 -8.054,-0.564 -11.9,-1.7c6.717,-0.693 13.05,-3.743 19,-9.15c15.021,-13.653 20.788,-29.886 17.3,-48.7c7.68,1.454 15.647,1.621 23.9,0.5m-65.1,1.1c0.787,-0.311 1.554,-0.661 2.3,-1.05c5.493,-2.924 10.61,-6.174 15.35,-9.75c0.68,0.497 1.413,0.963 2.2,1.4c5.472,3.03 11.105,5.296 16.9,6.8c1.584,8.754 0.834,17.254 -2.25,25.5c-4.767,12.767 -13.367,21.75 -25.8,26.95c-10.733,4.5 -18.9,2.25 -24.5,-6.75c-1.567,-2.533 -2.033,-5.283 -1.4,-8.25c2.744,-13.07 8.477,-24.687 17.2,-34.85m20.55,63.2c-0.133,-0.233 -0.267,-0.467 -0.4,-0.7l-0.05,-0.05l0.05,0c1.954,-0.289 3.937,-0.739 5.95,-1.35c4.138,0.935 8.521,1.168 13.15,0.7c20.033,-2.067 40.067,-4.15 60.1,-6.25c12.279,-1.282 22.812,-5.532 31.6,-12.75c1.172,9.357 -2.795,17.407 -11.9,24.15c-1.9,-0.233 -3.233,0.433 -4,2l0,0.6c-0.299,0.211 -0.549,0.511 -0.75,0.9c-0.1,0.267 -0.117,0.5 -0.05,0.7c0.433,1.733 0.483,3.467 0.15,5.2c-2.4,12 -10.1,17.117 -23.1,15.35c-0.333,0.233 -0.667,0.45 -1,0.65c-0.226,0.17 -0.409,0.353 -0.55,0.55c-4.089,-5.277 -8.455,-10.344 -13.1,-15.2c-0.7,-0.567 -1.483,-0.733 -2.35,-0.5c-0.267,0.133 -0.517,0.267 -0.75,0.4c-0.433,0.3 -0.733,0.667 -0.9,1.1c-0.133,0.367 -0.117,0.717 0.05,1.05c2.8,5.4 6.833,10.05 12.1,13.95c-13.967,3.567 -28.333,4.133 -43.1,1.7c-4.2,-0.7 -8.133,-2.083 -11.8,-4.15c-11.367,-6.4 -14.483,-15.75 -9.35,-28.05m75.35,-106.5c-0.367,0.3 -0.583,0.683 -0.65,1.15c-0.367,4.1 0.183,7.967 1.65,11.6c1.067,0.833 2.15,0.833 3.25,0c0.333,-0.3 0.5,-0.667 0.5,-1.1c0.267,-4.067 -0.233,-7.95 -1.5,-11.65c-0.2,-0.1 -0.417,-0.2 -0.65,-0.3c-0.3,-0.133 -0.617,-0.233 -0.95,-0.3c0,0.033 -0.017,0.05 -0.05,0.05c-0.533,0.2 -1.067,0.383 -1.6,0.55Z" style="fill-rule:nonzero"/><path d="M653.6,153.9c0.133,0.233 0.267,0.467 0.4,0.7c-5.133,12.3 -2.017,21.65 9.35,28.05c3.667,2.067 7.6,3.45 11.8,4.15c14.767,2.433 29.133,1.867 43.1,-1.7c-5.267,-3.9 -9.3,-8.55 -12.1,-13.95c-0.167,-0.333 -0.183,-0.683 -0.05,-1.05c0.167,-0.433 0.467,-0.8 0.9,-1.1c0.233,-0.133 0.483,-0.267 0.75,-0.4c0.867,-0.233 1.65,-0.067 2.35,0.5c4.645,4.856 9.011,9.923 13.1,15.2c0.141,-0.197 0.324,-0.38 0.55,-0.55c0.333,-0.2 0.667,-0.417 1,-0.65c13,1.767 20.7,-3.35 23.1,-15.35c0.333,-1.733 0.283,-3.467 -0.15,-5.2c-0.067,-0.2 -0.05,-0.433 0.05,-0.7c0.201,-0.389 0.451,-0.689 0.75,-0.9l0,-0.6c0.767,-1.567 2.1,-2.233 4,-2c9.105,-6.743 13.072,-14.793 11.9,-24.15c-8.788,7.218 -19.321,11.468 -31.6,12.75c-20.033,2.1 -40.067,4.183 -60.1,6.25c-4.629,0.468 -9.012,0.235 -13.15,-0.7c-2.013,0.611 -3.996,1.061 -5.95,1.35l0,0.05m-17.85,-63.55c-0.746,0.389 -1.513,0.739 -2.3,1.05c-8.723,10.163 -14.456,21.78 -17.2,34.85c-0.633,2.967 -0.167,5.717 1.4,8.25c5.6,9 13.767,11.25 24.5,6.75c12.433,-5.2 21.033,-14.183 25.8,-26.95c3.084,-8.246 3.834,-16.746 2.25,-25.5c-5.795,-1.504 -11.428,-3.77 -16.9,-6.8c-0.787,-0.437 -1.52,-0.903 -2.2,-1.4c-4.74,3.576 -9.857,6.826 -15.35,9.75m71.05,-1c-2.733,0.267 -5.483,0.583 -8.25,0.95c-8.253,1.121 -16.22,0.954 -23.9,-0.5c3.488,18.814 -2.279,35.047 -17.3,48.7c-5.95,5.407 -12.283,8.457 -19,9.15c3.846,1.136 7.813,1.702 11.9,1.7l0.05,-0.25c-0.267,-0.167 -0.5,-0.367 -0.7,-0.6c-0.133,-0.367 -0.183,-0.75 -0.15,-1.15c0.033,-0.5 0.05,-1 0.05,-1.5c0.1,-0.433 0.35,-0.8 0.75,-1.1c0.333,-0.2 0.667,-0.417 1,-0.65c0.867,-0.233 1.65,-0.067 2.35,0.5c0.167,0.267 0.35,0.517 0.55,0.75c0.167,0.267 0.367,0.517 0.6,0.75c31.967,1.5 63.567,-1.717 94.8,-9.65c5.171,-1.325 9.737,-3.808 13.7,-7.45c-0.505,-1.695 -1.172,-3.429 -2,-5.2c-3,-6.4 -7.167,-12 -12.5,-16.8c-8.175,-7.435 -14.575,-16.035 -19.2,-25.8c-6.398,4.664 -13.982,7.38 -22.75,8.15m37.85,-44.85c-4.704,0.836 -9.487,1.419 -14.35,1.75c-5.467,0.367 -10.9,1.017 -16.3,1.95c-19.5,3.367 -38.633,8.217 -57.4,14.55c-1.833,0.6 -3.617,1.3 -5.35,2.1c-0.267,0.067 -0.517,0.067 -0.75,0c-0.226,-0.04 -0.442,-0.107 -0.65,-0.2c-0.359,3.282 0.475,6.448 2.5,9.5c1.042,-0.562 2.092,-1.112 3.15,-1.65c0.333,0.067 0.65,0.167 0.95,0.3c0.233,0.1 0.45,0.2 0.65,0.3c0.167,0.267 0.35,0.517 0.55,0.75c0.267,0.333 0.383,0.717 0.35,1.15c-0.948,0.843 -1.915,1.659 -2.9,2.45c1.57,1.532 3.42,2.732 5.55,3.6c11.367,4.633 22.983,5.733 34.85,3.3c3.2,-3.1 7.45,-5.167 12.75,-6.2c16.2,-3.267 28.117,-11.75 35.75,-25.45c1.558,-2.761 1.775,-5.494 0.65,-8.2m-15.95,4.75c0.067,-0.467 0.283,-0.85 0.65,-1.15c0.533,-0.167 1.067,-0.35 1.6,-0.55c0.033,0 0.05,-0.017 0.05,-0.05c0.333,0.067 0.65,0.167 0.95,0.3c0.233,0.1 0.45,0.2 0.65,0.3c1.267,3.7 1.767,7.583 1.5,11.65c0,0.433 -0.167,0.8 -0.5,1.1c-1.1,0.833 -2.183,0.833 -3.25,0c-1.467,-3.633 -2.017,-7.5 -1.65,-11.6m1.05,-16.9c0.489,-0.301 0.972,-0.601 1.45,-0.9c-2.714,-1.32 -5.714,-2.287 -9,-2.9c-5.633,-1.067 -11.333,-1.383 -17.1,-0.95c-21.133,1.833 -38.083,10.933 -50.85,27.3c-0.769,0.996 -1.435,1.979 -2,2.95c1.042,-0.489 2.292,-0.839 3.75,-1.05c1.967,-0.267 3.917,-0.683 5.85,-1.25c15.967,-4.667 32.133,-8.383 48.5,-11.15c10.21,-1.723 20.393,-3.54 30.55,-5.45c-1.751,-2.057 -3.734,-3.84 -5.95,-5.35c-1.421,0.54 -2.855,1.057 -4.3,1.55c-0.333,0.1 -0.633,-0.083 -0.9,-0.55c-0.067,-0.1 -0.117,-0.217 -0.15,-0.35c-0.033,-0.133 -0.067,-0.267 -0.1,-0.4l0,-0.7c0.067,-0.267 0.15,-0.533 0.25,-0.8m34.9,1.95c5.567,-1.1 10.183,-3.533 13.85,-7.3c-4.3,-5.933 -10.467,-7.1 -18.5,-3.5c-6.741,3.05 -13.474,5.833 -20.2,8.35c2.297,1.777 4.464,3.794 6.5,6.05c6.136,-1.16 12.252,-2.36 18.35,-3.6Z" style="fill:#e3e3e3;fill-rule:nonzero"/></g></g></svg>