
<svg xmlns="http://www.w3.org/2000/svg" version="1.1" xmlns:xlink="http://www.w3.org/1999/xlink" preserveAspectRatio="none" x="0px" y="0px" width="200px" height="200px" viewBox="0 0 200 200">
<defs>
<g id="Layer0_0_FILL">
<path fill="#000000" stroke="none" d="
M 182.65 28.85
Q 183.2 16.35 168.5 16.5 151.1328125 20.452734375 135.55 28.95 123.121875 21.4529296875 106.5 22.5
L 106.5 22.55
Q 81.5 24.25 61.75 39.8 49.8 49.15 45.6 63.4 43.2123046875 71.4462890625 47.25 76.9 40.26171875 80.8376953125 33.55 85.25 33.478515625 85.27578125 33.4 85.3 33.15 85.35 33 85.5 32.8359375 85.665625 32.65 85.8 30.448046875 87.3146484375 28.25 88.85 28 89.4 28 90 28 90.4078125 28.1 90.75 20.8123046875 99.197265625 15.4 109 9.2 120.2 11.65 132.6 13.45 141.65 21.95 145.05 26.096875 146.730078125 30.05 147.4 30.061328125 147.4974609375 30.05 147.6 29.9 148.6 30.1 149.5 39.02109375 154.6255859375 49 154.3 48.623046875 154.8900390625 48.35 155.55 44.8 164.25 47.65 173.2 51.25 184.5 62.7 187.85 85.6 194.5 109.8 193.15 118.7220703125 192.64140625 123.7 186.95 134.2224609375 191.635546875 144.35 184.15 155.640234375 175.8166015625 152.5 163.9 153.4203125 163.7529296875 154.4 163.15 168.75 154.45 169.45 137.95 169.634375 133.848046875 168.95 130.05 169.48671875 129.5447265625 170 129 170.05 128.35 169.65 127.85 169.35 127.5 169.1 127.1 168.8 126.95 168.45 126.8 168.315625 126.740234375 168.15 126.7 165.987890625 119.18125 160.15 113.05 144.867578125 97.0328125 133.1 78.35 133.294921875 78.18984375 133.5 78 133.5 77.8 133.45 77.6 133.4 77.45 133.35 77.25 133.25 77.05 133.15 76.85 133.05 76.7 132.95 76.5 132.8 76.3 132.6 76.1 132.3 75.95 131.95 75.8 131.5 75.6 130.95 75.6 130.6 75.55 130.25 75.6 126.5 78.35 122.15 80 116.55 82.15 112.6 82.5 122.3 79.7 131.1 74.85 146.95 66.1 150.2 49.1 150.7705078125 46.1111328125 149.95 43.45 165.5373046875 40.075390625 179.85 32.95 182.5 31.6 182.65 28.85
M 178.5 27
Q 173 32.65 164.65 34.3 155.503515625 36.159765625 146.3 37.9 143.2458984375 34.5154296875 139.8 31.85 149.8884765625 28.0744140625 160 23.5 172.05 18.1 178.5 27
M 131.2 31.45
Q 130.4830078125 31.8984375 129.75 32.35 129.6 32.75 129.5 33.15 129.5 33.3 129.5 33.5 129.5 33.7 129.5 33.85 129.55 34.05 129.6 34.25 129.65 34.45 129.75 34.6 130.15 35.3 130.65 35.15 132.81796875 34.41015625 134.95 33.6 138.2736328125 35.86484375 140.9 38.95 125.6642578125 41.81484375 110.35 44.4 85.8 48.55 61.85 55.55 58.95 56.4 56 56.8 53.8130859375 57.116796875 52.25 57.85 53.0970703125 56.3935546875 54.25 54.9 73.4 30.35 105.1 27.6 113.75 26.95 122.2 28.55 127.128515625 29.4697265625 131.2 31.45
M 130.3 46.25
Q 137.5939453125 45.753515625 144.65 44.5 146.337109375 48.5587890625 144 52.7 132.55 73.25 108.25 78.15 100.3 79.7 95.5 84.35 77.7 88 60.65 81.05 57.4556640625 79.7486328125 55.1 77.45 56.57734375 76.2638671875 58 75 58.05 74.35 57.65 73.85 57.35 73.5 57.1 73.1 56.8 72.95 56.45 72.8 56 72.6 55.5 72.5 53.9130859375 73.307421875 52.35 74.15 49.3119140625 69.572265625 49.85 64.65 50.161328125 64.790234375 50.5 64.85 50.85 64.95 51.25 64.85 53.85 63.65 56.6 62.75 84.75 53.25 114 48.2 122.1 46.8 130.3 46.25
M 98.55 90.3
Q 102.7 89.75 106.8 89.35 119.9525390625 88.1955078125 129.55 81.2 136.4869140625 95.8474609375 148.75 107 156.75 114.2 161.25 123.8 162.4923828125 126.4568359375 163.25 129 157.305859375 134.4625 149.55 136.45 102.7 148.35 54.75 146.1 54.4 145.75 54.15 145.35 53.85 145 53.6 144.6 52.55 143.75 51.25 144.1 50.75 144.45 50.25 144.75 49.65 145.2 49.5 145.85 49.5 146.6 49.45 147.35 49.4 147.95 49.6 148.5 49.9 148.85 50.3 149.1 50.55390625 149.23515625 50.8 149.35 50.537109375 149.376953125 50.25 149.35 44.11953125 149.3537109375 38.35 147.65 48.425 146.6111328125 57.35 138.5 79.8818359375 118.020703125 74.65 89.8 86.170703125 91.9810546875 98.55 90.3
M 33.45 91.4
Q 34.6302734375 90.9341796875 35.75 90.35 43.989453125 85.964453125 51.1 80.6 52.1197265625 81.344921875 53.3 82 61.5078125 86.5447265625 70.2 88.8 72.5763671875 101.9306640625 67.95 114.3 60.8 133.45 42.15 141.25 26.05 148 17.65 134.5 15.3 130.7 16.25 126.25 20.365625 106.644921875 33.45 91.4
M 54 154.6
Q 53.8 154.25 53.6 153.9
L 53.55 153.85 53.6 153.85
Q 56.5302734375 153.4171875 59.55 152.5 65.7572265625 153.902734375 72.7 153.2 102.75 150.1 132.8 146.95 151.218359375 145.0263671875 164.4 134.2 166.158203125 148.235546875 152.5 158.35 149.65 158 148.5 160.35 148.5 160.654296875 148.5 160.95 148.0521484375 161.2671875 147.75 161.85 147.6 162.25 147.7 162.55 148.35 165.15 147.85 167.75 144.25 185.75 124.75 183.1 124.25 183.45 123.75 183.75 123.4109375 184.004296875 123.2 184.3 117.0671875 176.383984375 110.1 169.1 109.05 168.25 107.75 168.6 107.35 168.8 107 169 106.35 169.45 106.1 170.1 105.9 170.65 106.15 171.15 110.35 179.25 118.25 185.1 97.3 190.45 75.15 186.8 68.85 185.75 63.35 182.65 46.3 173.05 54 154.6
M 129.35 48.1
Q 128.8 48.55 128.7 49.25 128.15 55.4 130.35 60.85 131.95 62.1 133.6 60.85 134.1 60.4 134.1 59.75 134.5 53.65 132.6 48.1 132.3 47.95 131.95 47.8 131.5 47.6 131 47.5 131 47.55 130.95 47.55 130.15 47.85 129.35 48.1 Z"/>

<path fill="#E3E3E3" stroke="none" d="
M 53.6 153.9
Q 53.8 154.25 54 154.6 46.3 173.05 63.35 182.65 68.85 185.75 75.15 186.8 97.3 190.45 118.25 185.1 110.35 179.25 106.15 171.15 105.9 170.65 106.1 170.1 106.35 169.45 107 169 107.35 168.8 107.75 168.6 109.05 168.25 110.1 169.1 117.0671875 176.383984375 123.2 184.3 123.4109375 184.004296875 123.75 183.75 124.25 183.45 124.75 183.1 144.25 185.75 147.85 167.75 148.35 165.15 147.7 162.55 147.6 162.25 147.75 161.85 148.0521484375 161.2671875 148.5 160.95 148.5 160.654296875 148.5 160.35 149.65 158 152.5 158.35 166.158203125 148.235546875 164.4 134.2 151.218359375 145.0263671875 132.8 146.95 102.75 150.1 72.7 153.2 65.7572265625 153.902734375 59.55 152.5 56.5302734375 153.4171875 53.6 153.85
L 53.6 153.9
M 35.75 90.35
Q 34.6302734375 90.9341796875 33.45 91.4 20.365625 106.644921875 16.25 126.25 15.3 130.7 17.65 134.5 26.05 148 42.15 141.25 60.8 133.45 67.95 114.3 72.5763671875 101.9306640625 70.2 88.8 61.5078125 86.5447265625 53.3 82 52.1197265625 81.344921875 51.1 80.6 43.989453125 85.964453125 35.75 90.35
M 106.8 89.35
Q 102.7 89.75 98.55 90.3 86.170703125 91.9810546875 74.65 89.8 79.8818359375 118.020703125 57.35 138.5 48.425 146.6111328125 38.35 147.65 44.11953125 149.3537109375 50.25 149.35
L 50.3 149.1
Q 49.9 148.85 49.6 148.5 49.4 147.95 49.45 147.35 49.5 146.6 49.5 145.85 49.65 145.2 50.25 144.75 50.75 144.45 51.25 144.1 52.55 143.75 53.6 144.6 53.85 145 54.15 145.35 54.4 145.75 54.75 146.1 102.7 148.35 149.55 136.45 157.305859375 134.4625 163.25 129 162.4923828125 126.4568359375 161.25 123.8 156.75 114.2 148.75 107 136.4869140625 95.8474609375 129.55 81.2 119.9525390625 88.1955078125 106.8 89.35
M 144.65 44.5
Q 137.5939453125 45.753515625 130.3 46.25 122.1 46.8 114 48.2 84.75 53.25 56.6 62.75 53.85 63.65 51.25 64.85 50.85 64.95 50.5 64.85 50.161328125 64.790234375 49.85 64.65 49.3119140625 69.572265625 52.35 74.15 53.9130859375 73.307421875 55.5 72.5 56 72.6 56.45 72.8 56.8 72.95 57.1 73.1 57.35 73.5 57.65 73.85 58.05 74.35 58 75 56.57734375 76.2638671875 55.1 77.45 57.4556640625 79.7486328125 60.65 81.05 77.7 88 95.5 84.35 100.3 79.7 108.25 78.15 132.55 73.25 144 52.7 146.337109375 48.5587890625 144.65 44.5
M 128.7 49.25
Q 128.8 48.55 129.35 48.1 130.15 47.85 130.95 47.55 131 47.55 131 47.5 131.5 47.6 131.95 47.8 132.3 47.95 132.6 48.1 134.5 53.65 134.1 59.75 134.1 60.4 133.6 60.85 131.95 62.1 130.35 60.85 128.15 55.4 128.7 49.25
M 129.75 32.35
Q 130.4830078125 31.8984375 131.2 31.45 127.128515625 29.4697265625 122.2 28.55 113.75 26.95 105.1 27.6 73.4 30.35 54.25 54.9 53.0970703125 56.3935546875 52.25 57.85 53.8130859375 57.116796875 56 56.8 58.95 56.4 61.85 55.55 85.8 48.55 110.35 44.4 125.6642578125 41.81484375 140.9 38.95 138.2736328125 35.86484375 134.95 33.6 132.81796875 34.41015625 130.65 35.15 130.15 35.3 129.75 34.6 129.65 34.45 129.6 34.25 129.55 34.05 129.5 33.85 129.5 33.7 129.5 33.5 129.5 33.3 129.5 33.15 129.6 32.75 129.75 32.35
M 164.65 34.3
Q 173 32.65 178.5 27 172.05 18.1 160 23.5 149.8884765625 28.0744140625 139.8 31.85 143.2458984375 34.5154296875 146.3 37.9 155.503515625 36.159765625 164.65 34.3 Z"/>
</g>
</defs>

<g transform="matrix( 1, 0, 0, 1, 0,0) ">
<use xlink:href="#Layer0_0_FILL"/>
</g>
</svg>
