
<svg xmlns="http://www.w3.org/2000/svg" version="1.1" xmlns:xlink="http://www.w3.org/1999/xlink" preserveAspectRatio="none" x="0px" y="0px" width="200px" height="200px" viewBox="0 0 200 200">
<defs>
<g id="Layer0_0_FILL">
<path fill="#000000" stroke="none" d="
M 198.25 29.85
Q 195.1 19.55 182.5 20.5 159.8 21.1 140.75 33.35 140.6 33.75 140.5 34.15 140.5 34.3 140.5 34.5 140.472265625 34.8328125 140.55 35.1 121.445703125 21.07890625 95.5 23.5 83.3 24.8 72 30.2 49.25 41 46.6 64.9 46.1 69.3 48.85 72.6 50.573828125 74.6408203125 52.4 76.45 35.8939453125 83.7046875 25.1 99 12.8 116.35 14.45 136.85 14.75 140.55 18.2 142.15 23.3005859375 144.574609375 28.45 145.45 27.445703125 147.65078125 26.85 150.1 25.55 155.5 24.85 161.05 24.5 164 24.5 167 24.55 174.6 28 181.35 29.8 184.8 33.55 185 45.65 185.55 57.75 185.55 103.35 185.55 149 185.7 164.95 185.7 179.6 179.85 179.85 179.5 180.15 179.15 181.65 177.7 182 175.75 180.8 172.8 177.45 172.4 162.85 170.65 152.35 169.85 157.58359375 167.9587890625 159.9 163.3 162.74140625 161.630859375 164.5 158.8 165.12734375 157.7955078125 165.65 156.75 165.832421875 156.64609375 165.95 156.45 166.05 156.3 166.15 156.15 166.494140625 155.719921875 166.5 155.15 173.13828125 141.6791015625 167.5 126.35 157.2578125 98.5220703125 134.6 80.7 136.7755859375 79.2748046875 138.9 77.65 151.3 68.15 153 53.45 153.3765625 50.14140625 152.25 47.3 167.7447265625 45.1111328125 183 41.65 191.5 39.75 197.15 33.9 198.9 32.1 198.25 29.85
M 166 27.05
Q 181.2 22.55 194 29.35 193.9 29.75 193.7 30 188.55 35.55 180.25 37.4 164.764453125 40.774609375 149 42.5 146.253515625 39.6955078125 143.35 37.3 143.1615234375 37.151171875 142.95 37 143.3443359375 36.98515625 143.75 36.85 154.3 30.5 166 27.05
M 171.35 176.5
Q 173.7 176.35 173.1 177.1 164.3 180.1 155 180.1 147.2201171875 180.087109375 139.45 180.05 139.5236328125 179.8076171875 139.5 179.5 139.4 179.1 139.3 178.75 139.1 178.1 138.6 177.6 138.3 177.45 137.95 177.3 127.1251953125 173.598828125 116.15 170.2 119.7115234375 168.2318359375 121.5 163 121.55 162.35 121.15 161.85 120.85 161.5 120.6 161.1 120.3 160.95 119.95 160.8 119.5 160.6 119 160.5 118.6 160.55 118.25 160.65 117.9 160.75 117.6 160.85 113.75 166.55 107.5 168.85 107.5 169.45 107.55 170 107.6 170.35 107.75 170.75 107.8603515625 170.8603515625 107.95 170.95 107.96640625 171.5328125 108.25 172.1 108.55 172.5 108.95 172.65 112.15 174.15 115.4 175.6 122.3353515625 178.60234375 129.3 180.05 81.4376953125 180.0740234375 33.85 180.35 33.3 179.95 33 179.3 27.7830078125 167.4912109375 30.4 155.55 30.459375 155.5439453125 30.5 155.55 50.75 158.65 71.5 157.95 77.55 157.75 83.6 158.1 121.49140625 160.25859375 158.95 157.4 155.385546875 160.277734375 149.75 161.85 149.45 162.4 149.45 163 149.45 163.55 149.75 164.1 150.0640625 164.2806640625 150.35 164.4 150.2669921875 164.5177734375 150.15 164.6 146.5140625 167.727734375 142.6 170.6 142.4 171.15 142.5 171.75 142.55 172.1 142.6 172.5 142.9 172.85 143.3 173 156.55 177.25 171.35 176.5
M 164.7 138.25
Q 166.2291015625 147.2548828125 162.75 153.05 135.1365234375 152.8828125 106.85 152.55 96.9 152.45 86.85 152.6 59.155859375 153.0783203125 31.95 150.25 32.7345703125 148.14453125 33.75 146 43.4529296875 146.2814453125 53.35 141.25 60.95 137.4 66.45 131 82.69609375 112.1103515625 73.85 89.4 82.68203125 92.1146484375 93 91.85 93.05 92.05 93.1 92.25 93.15 92.45 93.25 92.6 93.35 92.8 93.5 93 93.65 93.2 93.85 93.35 113.9484375 93.1478515625 131 83 134.023828125 86.838671875 137.85 90.25 159.8 109.85 164.7 138.25
M 143.15 43.05
Q 140.821484375 43.276171875 138.45 43.45 95.75 46.55 54.75 56.6 53.5568359375 57.125 52.8 58.3 53.20703125 57.2634765625 53.7 56.2 54.28046875 55.0169921875 55 53.8 68.15 31.6 94.75 28.6 105.15 27.45 115.3 29.05 132.095703125 31.701953125 143.15 43.05
M 121.45 79.35
Q 120.6 79.2 119.75 79.1 113.2 85.65 103.55 86.75 80.45 89.35 60.85 77.65 49.0087890625 70.5853515625 52.4 59.5 52.4302734375 59.4376953125 52.45 59.35 52.45 59.43828125 52.45 59.5 52.45 60.1 52.75 60.6 53.15 61.3 53.85 61.35 60 61.4 66.2 59.8 95 52.25 124.95 50.2 129.20859375 49.903125 133.45 49.5 140.321484375 48.879296875 147.15 48 147.9630859375 49.8037109375 147.6 51.85 143.95 72.55 123 81 122.8 80.7 122.6 80.35 122.35 80 122.1 79.6 121.8 79.45 121.45 79.35
M 45.2 86.9
Q 50.694140625 82.8919921875 55.45 79.3 61.8630859375 84.787890625 69.45 87.85 69.527734375 87.905859375 69.55 87.9 69.4109375 88.1140625 69.25 88.35 71.55 96.95 71.6 106 71.7 115.55 66 123.2 50.3 144.4 23.8 140.05 19.7 139.4 19.75 135.35 20.05 105.4 45.2 86.9
M 134.45 50.3
Q 134 50.1 133.5 50 133.05 50.1 132.4 50.3 132.15 50.35 132 50.5 131.8 50.7 131.6 50.85 131.4 51.05 131.25 51.25 131.05 52.05 130.8 52.75 128.6 58.8 129.85 64.35 131.1 65.4 132.6 64.75 132.75 64.6 132.85 64.5 135.35 62.25 136.5 59.25 136.35 58.6 136 58.1 135.75 57.75 135.5 57.35 135.5 56.8 135.65 56.3 136.75 53.25 135.1 50.6 134.8 50.45 134.45 50.3 Z"/>

<path fill="#E3E3E3" stroke="none" d="
M 55.45 79.3
Q 50.694140625 82.8919921875 45.2 86.9 20.05 105.4 19.75 135.35 19.7 139.4 23.8 140.05 50.3 144.4 66 123.2 71.7 115.55 71.6 106 71.55 96.95 69.25 88.35
L 69.45 87.85
Q 61.8630859375 84.787890625 55.45 79.3
M 119.75 79.1
Q 120.6 79.2 121.45 79.35 121.8 79.45 122.1 79.6 122.35 80 122.6 80.35 122.8 80.7 123 81 143.95 72.55 147.6 51.85 147.9630859375 49.8037109375 147.15 48 140.321484375 48.879296875 133.45 49.5 129.20859375 49.903125 124.95 50.2 95 52.25 66.2 59.8 60 61.4 53.85 61.35 53.15 61.3 52.75 60.6 52.45 60.1 52.45 59.5
L 52.4 59.5
Q 49.0087890625 70.5853515625 60.85 77.65 80.45 89.35 103.55 86.75 113.2 85.65 119.75 79.1
M 133.5 50
Q 134 50.1 134.45 50.3 134.8 50.45 135.1 50.6 136.75 53.25 135.65 56.3 135.5 56.8 135.5 57.35 135.75 57.75 136 58.1 136.35 58.6 136.5 59.25 135.35 62.25 132.85 64.5 132.75 64.6 132.6 64.75 131.1 65.4 129.85 64.35 128.6 58.8 130.8 52.75 131.05 52.05 131.25 51.25 131.4 51.05 131.6 50.85 131.8 50.7 132 50.5 132.15 50.35 132.4 50.3 133.05 50.1 133.5 50
M 138.45 43.45
Q 140.821484375 43.276171875 143.15 43.05 132.095703125 31.701953125 115.3 29.05 105.15 27.45 94.75 28.6 68.15 31.6 55 53.8 54.28046875 55.0169921875 53.7 56.2
L 54.75 56.6
Q 95.75 46.55 138.45 43.45
M 162.75 153.05
Q 166.2291015625 147.2548828125 164.7 138.25 159.8 109.85 137.85 90.25 134.023828125 86.838671875 131 83 113.9484375 93.1478515625 93.85 93.35 93.65 93.2 93.5 93 93.35 92.8 93.25 92.6 93.15 92.45 93.1 92.25 93.05 92.05 93 91.85 82.68203125 92.1146484375 73.85 89.4 82.69609375 112.1103515625 66.45 131 60.95 137.4 53.35 141.25 43.4529296875 146.2814453125 33.75 146 32.7345703125 148.14453125 31.95 150.25 59.155859375 153.0783203125 86.85 152.6 96.9 152.45 106.85 152.55 135.1365234375 152.8828125 162.75 153.05
M 173.1 177.1
Q 173.7 176.35 171.35 176.5 156.55 177.25 143.3 173 142.9 172.85 142.6 172.5 142.55 172.1 142.5 171.75 142.4 171.15 142.6 170.6 146.5140625 167.727734375 150.15 164.6
L 149.75 164.1
Q 149.45 163.55 149.45 163 149.45 162.4 149.75 161.85 155.385546875 160.277734375 158.95 157.4 121.49140625 160.25859375 83.6 158.1 77.55 157.75 71.5 157.95 50.75 158.65 30.5 155.55 30.459375 155.5439453125 30.4 155.55 27.7830078125 167.4912109375 33 179.3 33.3 179.95 33.85 180.35 81.4376953125 180.0740234375 129.3 180.05 122.3353515625 178.60234375 115.4 175.6 112.15 174.15 108.95 172.65 108.55 172.5 108.25 172.1 107.96640625 171.5328125 107.95 170.95 107.8603515625 170.8603515625 107.75 170.75 107.6 170.35 107.55 170 107.5 169.45 107.5 168.85 113.75 166.55 117.6 160.85 117.9 160.75 118.25 160.65 118.6 160.55 119 160.5 119.5 160.6 119.95 160.8 120.3 160.95 120.6 161.1 120.85 161.5 121.15 161.85 121.55 162.35 121.5 163 119.7115234375 168.2318359375 116.15 170.2 127.1251953125 173.598828125 137.95 177.3 138.3 177.45 138.6 177.6 139.1 178.1 139.3 178.75 139.4 179.1 139.5 179.5 139.5236328125 179.8076171875 139.45 180.05 147.2201171875 180.087109375 155 180.1 164.3 180.1 173.1 177.1
M 194 29.35
Q 181.2 22.55 166 27.05 154.3 30.5 143.75 36.85
L 143.35 37.3
Q 146.253515625 39.6955078125 149 42.5 164.764453125 40.774609375 180.25 37.4 188.55 35.55 193.7 30 193.9 29.75 194 29.35 Z"/>
</g>
</defs>

<g transform="matrix( 1, 0, 0, 1, 0,0) ">
<use xlink:href="#Layer0_0_FILL"/>
</g>
</svg>
