
<svg xmlns="http://www.w3.org/2000/svg" version="1.1" xmlns:xlink="http://www.w3.org/1999/xlink" preserveAspectRatio="none" x="0px" y="0px" width="200px" height="200px" viewBox="0 0 200 200">
<defs>
<g id="Layer0_0_FILL">
<path fill="#000000" stroke="none" d="
M 187.6 40.55
Q 193.85 39.25 194.05 33.25 194.5 17.25 178 18 157.5630859375 22.3025390625 138.6 30.95 125.4505859375 21.112890625 106.5 22 77.3 22.2 54.2 39.9 41.35 49.65 41.7 64.85 41.8 70.95 46.35 74.75 48.0982421875 76.215234375 49.9 77.55 32.613671875 86.661328125 20.35 102.9 4.95 123.35 13.6 147 14.05 147.6 14.6 148.1 16.4 149.6 18.45 149.75 21.7611328125 150.033203125 25.05 150 25.1 150.35 25.25 150.75 20.15 161.8 17.55 173.65 15.9 181.15 23.2 184.5 40.85 192.6 60.55 193.65 66.2 193.9 71.9 192.65 79.5 191 75.1 185.25 71.15 180.15 67.65 174.85 67.1794921875 174.1310546875 66.7 173.5 87.3111328125 174.1291015625 107.5 170.5 107.3982421875 170.6525390625 107.3 170.8 107.15 170.95 107.1 171.1 106.9 171.65 107 172.25 107.05 172.6 107.1 173 113.0802734375 182.0076171875 121.55 187.2 121.534765625 187.26875 121.5 187.35 121.5 187.75 121.5 188.1 121.5 188.3 121.5 188.5 121.55 188.65 121.6 188.85 121.65 189.05 121.75 189.25 123.4 190.75 125.55 191.65 126.95 192.2 128.3 191.85 157.2 183.75 180 164 183.8 160.7 185.6 156.2 190.4 144.2 176.5 143 172.4265625 143.3837890625 168.7 144.65 169.37421875 142.0736328125 169.75 139.3 171.1 129.3 166.8 120.05 154.6732421875 94.2513671875 133 76.8 134.7619140625 75.4263671875 136.5 73.95 147.9 64.35 150.55 50.3 150.7673828125 49.13671875 150.8 48 169.21640625 44.3025390625 187.6 40.55
M 189.75 32.75
Q 189.6 33.1 189.5 33.5 189.5 33.7 189.4 33.8 189.15 34.05 188.85 34.25 169.3 38.3 149.9 42.85 149.7955078125 42.8744140625 149.7 42.9 149.169140625 41.8134765625 148.4 40.8 145.2765625 36.6796875 141.65 33.45 157.5814453125 29.39765625 173.5 24 187.95 19.1 190 32.35 189.85 32.55 189.75 32.75
M 182.5 150.75
Q 182.45 151.5 182.15 152.05 174.6 165.15 160.55 172.7 154.1 176.2 148 180.25 137.96015625 186.9291015625 127.3 186.15 118.3244140625 178.286328125 110.05 170.05 118.8681640625 168.348828125 127.6 165.85 128.1 165.4 128.3 164.7 128.4 164.35 128.5 164 128.55 163.35 128.15 162.85 127.85 162.5 127.6 162.1 127.3 161.95 126.95 161.8 126.5 161.6 126 161.5 109.1 165.85 91.45 167.15 77.8 168.2 65.25 170.85 65.0232421875 171.2658203125 64.95 171.7 64.884765625 171.6265625 64.8 171.55 61.701953125 169.1814453125 58.5 171.6 63.35 180.1 70.6 187.35 62.5 188.25 53.2 187.25 47.6 186.65 41.95 186.45 28.55 185.9 22 176 22.05 175.2 22.2 174.45 24.9361328125 162.9125 30.4 152.5 39.146875 154.7306640625 48.45 155.05 93.2 156.55 137.15 149.4 151.2 147.1 161.5 139 161.55 138.35 161.15 137.85 160.85 137.5 160.6 137.1 160.3 136.95 159.95 136.8 159.5 136.6 159 136.5 153.9 138.2 148.8 140.75 142.55 143.85 135.7 144.85 91.4 151.5 46.5 149.1 43.301953125 148.9001953125 40.2 148.25 45.95859375 146.99609375 51.6 144.75 63.85 139.85 70.4 128.75 81.48828125 109.95390625 74.35 89.95 80.2044921875 91.7548828125 86.45 92.7 94.95 93.95 103.45 94.35 113.65 94.85 116.85 87.5 123.3150390625 83.970703125 129.35 79.55 143.621484375 92.2984375 155.3 107.65 163.4 118.25 164.1 131.3 165.2 152.3 149.25 164.85 148.95 165.4 148.95 166 148.95 166.55 149.25 167.1 150.5 169.05 152.4 167.75 162.668359375 160.8353515625 167 149.85 175.80859375 146.125 182.5 150.75
M 145.35 49.1
Q 145.34296875 49.28984375 145.3 49.45 140.35 67.3 123.75 77.65 113.8 83.85 102.1 86 80.3 90 60.05 79.25 56.05 77.15 52.75 74.15 46.1078125 68.106640625 46.5 61.6 47.36796875 61.85 48.35 61.85 66.4 62 84.35 59.75 106.9 56.9 129.2 52.4 129.50859375 52.3376953125 129.8 52.25
L 129.8 52.3
Q 129.65 52.45 129.6 52.6 129.4 53.15 129.35 53.75 128.85 59.15 130.35 63.85 132.5 65.3 134.35 63.6 134.7 63.1 134.85 62.5 134.9 62.1 135 61.75 134.85 61.15 134.85 60.65 135.05 55.8 133.6 51.6 133.537109375 51.5685546875 133.45 51.5 133.5255859375 51.51484375 133.55 51.5 139.47734375 50.3234375 145.35 49.1
M 144.35 43.2
Q 144.6076171875 43.60390625 144.8 44 102.6455078125 53.487890625 59.5 56.6 58.5 56.65 57.6 56.45 52.3427734375 55.09140625 48.2 55.8 49.5787109375 53.196875 52.05 50.5 73.15 27.6 104.85 27.1 113.55 27.2 122.1 28.7 136.75 31.25 144.35 43.2
M 53.1 79.85
Q 60.775390625 85.029296875 69.4 88.25 74.881640625 105.8841796875 68.15 122.95 66.95 125.9 64.7 128.05 46.05 146 19.85 145.85 19.55 145.55 19.25 145.25 18.8 144.85 18.35 144.5 17.45 142.65 17 140.75 15.75 135.55 16.4 130.35 19.65 105.65 40.45 90.25 47.3205078125 85.1697265625 53.1 79.85 Z"/>

<path fill="#E3E3E3" stroke="none" d="
M 69.4 88.25
Q 60.775390625 85.029296875 53.1 79.85 47.3205078125 85.1697265625 40.45 90.25 19.65 105.65 16.4 130.35 15.75 135.55 17 140.75 17.45 142.65 18.35 144.5 18.8 144.85 19.25 145.25 19.55 145.55 19.85 145.85 46.05 146 64.7 128.05 66.95 125.9 68.15 122.95 74.881640625 105.8841796875 69.4 88.25
M 144.8 44
Q 144.6076171875 43.60390625 144.35 43.2 136.75 31.25 122.1 28.7 113.55 27.2 104.85 27.1 73.15 27.6 52.05 50.5 49.5787109375 53.196875 48.2 55.8 52.3427734375 55.09140625 57.6 56.45 58.5 56.65 59.5 56.6 102.6455078125 53.487890625 144.8 44
M 145.3 49.45
Q 145.34296875 49.28984375 145.35 49.1 139.47734375 50.3234375 133.55 51.5
L 133.6 51.6
Q 135.05 55.8 134.85 60.65 134.85 61.15 135 61.75 134.9 62.1 134.85 62.5 134.7 63.1 134.35 63.6 132.5 65.3 130.35 63.85 128.85 59.15 129.35 53.75 129.4 53.15 129.6 52.6 129.65 52.45 129.8 52.3
L 129.8 52.25
Q 129.50859375 52.3376953125 129.2 52.4 106.9 56.9 84.35 59.75 66.4 62 48.35 61.85 47.36796875 61.85 46.5 61.6 46.1078125 68.106640625 52.75 74.15 56.05 77.15 60.05 79.25 80.3 90 102.1 86 113.8 83.85 123.75 77.65 140.35 67.3 145.3 49.45
M 182.15 152.05
Q 182.45 151.5 182.5 150.75 175.80859375 146.125 167 149.85 162.668359375 160.8353515625 152.4 167.75 150.5 169.05 149.25 167.1 148.95 166.55 148.95 166 148.95 165.4 149.25 164.85 165.2 152.3 164.1 131.3 163.4 118.25 155.3 107.65 143.621484375 92.2984375 129.35 79.55 123.3150390625 83.970703125 116.85 87.5 113.65 94.85 103.45 94.35 94.95 93.95 86.45 92.7 80.2044921875 91.7548828125 74.35 89.95 81.48828125 109.95390625 70.4 128.75 63.85 139.85 51.6 144.75 45.95859375 146.99609375 40.2 148.25 43.301953125 148.9001953125 46.5 149.1 91.4 151.5 135.7 144.85 142.55 143.85 148.8 140.75 153.9 138.2 159 136.5 159.5 136.6 159.95 136.8 160.3 136.95 160.6 137.1 160.85 137.5 161.15 137.85 161.55 138.35 161.5 139 151.2 147.1 137.15 149.4 93.2 156.55 48.45 155.05 39.146875 154.7306640625 30.4 152.5 24.9361328125 162.9125 22.2 174.45 22.05 175.2 22 176 28.55 185.9 41.95 186.45 47.6 186.65 53.2 187.25 62.5 188.25 70.6 187.35 63.35 180.1 58.5 171.6 61.701953125 169.1814453125 64.8 171.55
L 65.25 170.85
Q 77.8 168.2 91.45 167.15 109.1 165.85 126 161.5 126.5 161.6 126.95 161.8 127.3 161.95 127.6 162.1 127.85 162.5 128.15 162.85 128.55 163.35 128.5 164 128.4 164.35 128.3 164.7 128.1 165.4 127.6 165.85 118.8681640625 168.348828125 110.05 170.05 118.3244140625 178.286328125 127.3 186.15 137.96015625 186.9291015625 148 180.25 154.1 176.2 160.55 172.7 174.6 165.15 182.15 152.05
M 189.5 33.5
Q 189.6 33.1 189.75 32.75 189.85 32.55 190 32.35 187.95 19.1 173.5 24 157.5814453125 29.39765625 141.65 33.45 145.2765625 36.6796875 148.4 40.8 149.169140625 41.8134765625 149.7 42.9 149.7955078125 42.8744140625 149.9 42.85 169.3 38.3 188.85 34.25 189.15 34.05 189.4 33.8 189.5 33.7 189.5 33.5 Z"/>
</g>
</defs>

<g transform="matrix( 1, 0, 0, 1, 0,0) ">
<use xlink:href="#Layer0_0_FILL"/>
</g>
</svg>
