
<svg xmlns="http://www.w3.org/2000/svg" version="1.1" xmlns:xlink="http://www.w3.org/1999/xlink" preserveAspectRatio="none" x="0px" y="0px" width="200px" height="200px" viewBox="0 0 200 200">
<defs>
<g id="Layer0_0_FILL">
<path fill="#E3E3E3" stroke="none" d="
M 53.05 81.85
L 53 81.85
Q 53.005078125 81.93359375 53 82 45.55 87.75 36.35 92.8 15.15 104.55 15.55 128.1 15.75 137.9 25.8 140.45 36.7 143.25 46.6 138.1 67.85 127.1 70.05 102.85 70.65 96.15 70.75 89.35 71.8736328125 87.701953125 73.45 88.1
L 73.5 87.95
Q 62.9482421875 86.397265625 53.05 81.85
M 162.15 131.85
L 162.15 131.85 162.45 131.8
Q 160.7626953125 119.2705078125 152.1 108.1 140.65 93.3 131.5 77.35 131.65 77 131.9 76.65 132.25 76.25 132.6 75.85
L 131.5 73.95
Q 128.388671875 75.8392578125 124.6 77.25 117.85 85.55 105.95 86.75 102.25 87.1 98.5 87.7 86.187890625 89.66640625 74.65 88.1
L 74.6 88.6
Q 78 110.3 65.3 128.8 55.2 143.5 37.25 146.4
L 37.2 146.4
Q 36.2900390625 146.553125 35.4 146.65
L 35.4 146.75
Q 36.297265625 146.597265625 37.2 146.5
L 37.25 146.5
Q 39.5044921875 146.3470703125 42.05 146.6 64.55 148.8 87.25 148.8 118.3 148.75 146 135.9 148.05 134.9 150 134.5 150.5 134.6 150.95 134.8 151.3 134.95 151.6 135.1 151.796484375 135.414453125 152 135.7 156.1181640625 134.28984375 158.85 130.75 159.4 130.7 159.95 130.55 160 130.55 160 130.5 160.5 130.6 160.95 130.8 161.3 130.95 161.6 131.1 161.85 131.5 162.15 131.85
M 162.6 142.5
Q 163.082421875 137.65703125 162.6 133
L 162.5 133
Q 156.55 142.45 144.25 144.5 142.820703125 144.714453125 141.9 143.9 135.6783203125 146.9423828125 128.4 148.45 81.8 158.05 34 152.95 31.6734375 152.7263671875 30.1 151.15 30.0146484375 151.275 29.9 151.4 29.4 151.95 29.25 152.6 34 161.15 45.9 159.9 48.15 159.65 50.1 160.6 50.35 161 50.65 161.35 51.05 161.85 51 162.5 50.9 162.85 50.8 163.2 50.6 163.9 50.1 164.35 48.8490234375 164.5865234375 47.65 164.7 47.7625 175.4232421875 37.5 182.55 31.85 186.5 25.25 188.25 60.95 193.6 94.9 184.3 98.234765625 183.3736328125 101.15 181.6 94.4259765625 179.0341796875 87.95 175.9 85.55 174.7 86 172.05 86.45 169.6 87.85 167.6 89.05 166.6 90.45 167.25 90.8 167.45 91.1 167.6 91.35 168 91.6 168.35 91.75 168.55 91.85 168.75 91.9 168.95 92 169.1 92.05 169.7 91.9 170.25 91.8 170.6 91.7 171 91.65 171.2 91.65 171.35 91.5 172.1 91.25 172.85 119.05 184.6 149.35 184.25 154.6 184.2 159.35 181.8 168.65 177.05 169 167.1 156.5 168.1 144.45 165 143.8 164.8 143.25 164.25 142.95 163.7 143 163.1 143 162.95 143 162.75 143 162.55 143 162.35 143 162.2 143 162 143.05 161.8 143.1 161.6 143.15 161.45 143.3 161.3 143.6 160.85 144 160.5 144.15 160.35 144.35 160.3 144.9 160.2 145.45 160.05 145.5 160.05 145.5 160 146.3 160.3 147.1 160.65 147.25 160.75 147.35 160.85 148.4212890625 160.7828125 149.45 160.75 148.314453125 160.4140625 147.25 159.6 146.95 159.05 146.95 158.5 146.95 157.9 147.25 157.35 159.960546875 153.230859375 162.6 142.5
M 119.85 29.6
Q 108.65 26.25 96.75 27.6 64.5 30.3 47.7 56.85 47.2791015625 57.5158203125 46.9 58.15 71.995703125 50.2462890625 98.55 46.1 117.1466796875 43.236328125 135.55 39.45 129.3265625 32.40625 119.85 29.6
M 135.35 33.25
Q 138.0408203125 35.6 140.45 38.4 146.9119140625 37.0412109375 153.35 35.55 164.6 32.95 173.35 26.1 164 22.25 152.55 25.85 143.5748046875 28.6267578125 135.35 33.25
M 138.7 43.6
Q 136.7853515625 44.0115234375 134.85 44.4 105.1 50.4 75.35 56.4 60.0767578125 59.4900390625 45.2 62.4 43.3369140625 69.8873046875 50.9 75.2 59.95 81.45 70.95 82.8 92.6 85.45 113 78.85 113 78.7 113 78.5 113.05 78.3 113.1 78.1 113.15 77.95 113.25 77.75 127.85 72.1 137.4 60.4 144.070703125 52.1935546875 138.7 43.6
M 127.5 48.85
Q 127.65 48.5 127.9 48.15 128.25 47.75 128.6 47.35 128.9 47.25 129.25 47.15 129.6 47.05 130 47 130.5 47.1 130.95 47.3 131.3 47.45 131.6 47.6 133.65 53.4 131.85 59.15 131.75 59.55 131.25 59.85 129.9 60.3 128.85 59.35 126.8 55.1 127.4 50 127.5 49.45 127.5 48.85 Z"/>

<path fill="#000000" stroke="none" d="
M 162.6 133
Q 163.082421875 137.65703125 162.6 142.5 159.960546875 153.230859375 147.25 157.35 146.95 157.9 146.95 158.5 146.95 159.05 147.25 159.6 148.314453125 160.4140625 149.45 160.75 148.4212890625 160.7828125 147.35 160.85 147.25 160.75 147.1 160.65 146.3 160.3 145.5 160 145.5 160.05 145.45 160.05 144.9 160.2 144.35 160.3 144.15 160.35 144 160.5 143.6 160.85 143.3 161.3 143.15 161.45 143.1 161.6 143.05 161.8 143 162 143 162.2 143 162.35 143 162.55 143 162.75 143 162.95 143 163.1 142.95 163.7 143.25 164.25 143.8 164.8 144.45 165 156.5 168.1 169 167.1 168.65 177.05 159.35 181.8 154.6 184.2 149.35 184.25 119.05 184.6 91.25 172.85 91.5 172.1 91.65 171.35 91.65 171.2 91.7 171 91.8 170.6 91.9 170.25 92.05 169.7 92 169.1 91.9 168.95 91.85 168.75 91.75 168.55 91.6 168.35 91.35 168 91.1 167.6 90.8 167.45 90.45 167.25 89.05 166.6 87.85 167.6 86.45 169.6 86 172.05 85.55 174.7 87.95 175.9 94.4259765625 179.0341796875 101.15 181.6 98.234765625 183.3736328125 94.9 184.3 60.95 193.6 25.25 188.25 31.85 186.5 37.5 182.55 47.7625 175.4232421875 47.65 164.7 48.8490234375 164.5865234375 50.1 164.35 50.6 163.9 50.8 163.2 50.9 162.85 51 162.5 51.05 161.85 50.65 161.35 50.35 161 50.1 160.6 48.15 159.65 45.9 159.9 34 161.15 29.25 152.6 29.4 151.95 29.9 151.4 30.0146484375 151.275 30.1 151.15 31.6734375 152.7263671875 34 152.95 81.8 158.05 128.4 148.45 135.6783203125 146.9423828125 141.9 143.9 142.820703125 144.714453125 144.25 144.5 156.55 142.45 162.5 133 162.5486328125 132.36796875 162.15 131.85
L 162.15 131.85
Q 161.85 131.5 161.6 131.1 161.3 130.95 160.95 130.8 160.5 130.6 160 130.5 160 130.55 159.95 130.55 159.4 130.7 158.85 130.75 156.1181640625 134.28984375 152 135.7 151.796484375 135.414453125 151.6 135.1 151.3 134.95 150.95 134.8 150.5 134.6 150 134.5 148.05 134.9 146 135.9 118.3 148.75 87.25 148.8 64.55 148.8 42.05 146.6 39.5044921875 146.3470703125 37.25 146.5
L 37.2 146.5
Q 36.297265625 146.597265625 35.4 146.75 32.391796875 147.240625 29.95 148.6 29.7609375 148.3576171875 29.6 148.1 29.3 147.95 28.95 147.85 28.25 147.6 27.5 147.5 27.5 147.55 27.45 147.55 26.95 147.7 26.35 147.75 25.95 148.1 25.45 148.45 24.85 148.95 24.6 149.6 23.4 153.05 25.55 155.8 32.397265625 164.598046875 43.15 164.9 41.2720703125 174.456640625 32.15 179.6 29.75 180.95 27.2 181.5 19 183.2 13 187.1 13 188.8 14.4 189.3 37.6 197.55 63.5 194.5 65.15 194.3 66.8 194.5 89.953515625 196.9591796875 105.6 183.2 112.9994140625 185.8193359375 120.7 187.75 135.85 191.55 151.15 189.3 172.7 186.05 174.15 165.85 174.25 163.9 172.7 163.45 164.3427734375 161.0064453125 155.1 160.7 154.0806640625 160.68125 153.05 160.65 154.0501953125 160.404296875 155.1 159.85 167.4884765625 153.358984375 167.45 142.25 170.1044921875 134.5458984375 166 125.8 153.7 99.45 135.6 76.1 135.3 75.95 134.95 75.8 134.5 75.6 134 75.5 133.6 75.55 133.25 75.65 132.9 75.75 132.6 75.85 132.25 76.25 131.9 76.65 131.65 77 131.5 77.35 140.65 93.3 152.1 108.1 160.7626953125 119.2705078125 162.45 131.8 162.52734375 132.385546875 162.6 132.95
L 162.6 133
M 179 25.35
Q 178.9 25.2 178.8 25 175.1 18 166 19 147.7 20.05 132.25 29.85 132.15 30.05 132.1 30.25 132.0572265625 30.421484375 132 30.6 131.97421875 30.5634765625 131.9 30.5 118.03203125 20.59375 98 22.5 92.7 22.9 87.2 24 64.55 28.6 48.8 45.3 42.577734375 51.904296875 40.7 60.2 40.473828125 60.27421875 40.25 60.35 40.15 60.55 40.1 60.75 40.05 60.95 40 61.15 39.9 61.7 40.1 62.25 40.15 62.45 40.25 62.6 40.0392578125 64.0265625 39.95 65.5 39.35 74.55 47.3 78.95 48.2580078125 79.4826171875 49.2 79.95 48.5734375 80.228515625 47.9 80.5 43.1998046875 82.383984375 38.45 84.7 11.3 98.15 10.1 127.1 10 129.55 10.8 131.7 17.0802734375 148.7328125 35.35 146.65
L 35.4 146.65
Q 36.2900390625 146.553125 37.2 146.4
L 37.25 146.4
Q 55.2 143.5 65.3 128.8 78 110.3 74.6 88.6 74.0103515625 88.2361328125 73.45 88.1 71.8736328125 87.701953125 70.75 89.35 70.65 96.15 70.05 102.85 67.85 127.1 46.6 138.1 36.7 143.25 25.8 140.45 15.75 137.9 15.55 128.1 15.15 104.55 36.35 92.8 45.55 87.75 53 82 53.005078125 81.93359375 53 81.85
L 53 81.85
Q 53.0251953125 81.8615234375 53.05 81.85 62.9482421875 86.397265625 73.5 87.95 74.075 88.06015625 74.65 88.1 86.187890625 89.66640625 98.5 87.7 102.25 87.1 105.95 86.75 117.85 85.55 124.6 77.25 128.388671875 75.8392578125 131.5 73.95 143.933984375 66.4310546875 146.05 51.3 146.65 46.9 144.15 43.25 143.9244140625 42.921484375 143.7 42.6 143.851171875 42.56875 144 42.55 152.3455078125 40.8095703125 160.65 39 173.75 36.1 179 25.35
M 134.85 44.4
Q 136.7853515625 44.0115234375 138.7 43.6 144.070703125 52.1935546875 137.4 60.4 127.85 72.1 113.25 77.75 113.15 77.95 113.1 78.1 113.05 78.3 113 78.5 113 78.7 113 78.85 92.6 85.45 70.95 82.8 59.95 81.45 50.9 75.2 43.3369140625 69.8873046875 45.2 62.4 60.0767578125 59.4900390625 75.35 56.4 105.1 50.4 134.85 44.4
M 140.45 38.4
Q 138.0408203125 35.6 135.35 33.25 143.5748046875 28.6267578125 152.55 25.85 164 22.25 173.35 26.1 164.6 32.95 153.35 35.55 146.9119140625 37.0412109375 140.45 38.4
M 96.75 27.6
Q 108.65 26.25 119.85 29.6 129.3265625 32.40625 135.55 39.45 117.1466796875 43.236328125 98.55 46.1 71.995703125 50.2462890625 46.9 58.15 47.2791015625 57.5158203125 47.7 56.85 64.5 30.3 96.75 27.6
M 127.9 48.15
Q 127.65 48.5 127.5 48.85 127.5 49.45 127.4 50 126.8 55.1 128.85 59.35 129.9 60.3 131.25 59.85 131.75 59.55 131.85 59.15 133.65 53.4 131.6 47.6 131.3 47.45 130.95 47.3 130.5 47.1 130 47 129.6 47.05 129.25 47.15 128.9 47.25 128.6 47.35 128.25 47.75 127.9 48.15 Z"/>
</g>
</defs>

<g transform="matrix( 1, 0, 0, 1, 0,0) ">
<use xlink:href="#Layer0_0_FILL"/>
</g>
</svg>
